<svg width="981" height="492" viewBox="0 0 981 492" fill="none" xmlns="http://www.w3.org/2000/svg">
<path d="M338 107.759L307.207 452.715L168.793 491.088L30.76 452.769L0 107.759H338Z" fill="#E44D26"/>
<path d="M169 461.757L280.845 430.749L307.16 135.969H169V461.757Z" fill="#F16529"/>
<path d="M109.14 220.598H169V178.283H168.854H62.8964L63.9093 189.635L74.3093 306.242H169V263.928H113.007L109.14 220.598Z" fill="#EBEBEB"/>
<path d="M118.677 327.399H95.7773H76.1999L82.1281 393.838L168.805 417.9L169 417.846V373.822L168.815 373.871L121.689 361.147L118.677 327.399Z" fill="#EBEBEB"/>
<path d="M31.4478 14H52.9512V35.2453H72.6217V14H94.1261V78.336H72.6227V56.7925H52.9521V78.336H31.4487V14H31.4478Z" fill="black"/>
<path d="M122.404 35.3348H103.473V14H162.848V35.3348H143.909V78.336H122.405V35.3348H122.404Z" fill="black"/>
<path d="M172.272 14H194.694L208.486 36.6058L222.265 14H244.696V78.336H223.281V46.4476L208.486 69.3226H208.117L193.312 46.4476V78.336H172.272V14Z" fill="black"/>
<path d="M255.398 14H276.908V57.0702H307.148V78.336H255.398V14Z" fill="black"/>
<path d="M168.854 306.241H220.959L216.047 361.119L168.854 373.857V417.88L255.6 393.838L256.236 386.689L266.18 275.29L267.212 263.928H255.809H168.854V306.241Z" fill="white"/>
<path d="M168.854 220.494V220.598H270.926H271.062L271.911 211.087L273.839 189.635L274.851 178.283H168.854V204.564V220.494Z" fill="white"/>
<path d="M642.858 194.585L808.827 98.0151L974.796 194.585V387.569L808.827 484.138L642.858 387.569V194.585Z" fill="#CC0000"/>
<path d="M813.48 290.999L967.816 202.18L974.02 381.213L813.48 478.093V290.999Z" fill="white"/>
<path d="M970.142 196.755L969.677 386.484L808.672 479.798L807.896 293.324L970.142 196.755ZM834.73 308.825L835.196 433.451L888.709 402.295L888.554 308.36L915.543 292.394V386.639L942.532 370.828L942.688 244.652L834.73 308.825Z" fill="#CC0000"/>
<path d="M819.374 99.4101C811.929 95.2249 799.985 95.2249 792.54 99.4101L645.495 183.889C638.049 188.074 632.155 198.615 632.155 206.985V375.943C632.155 384.469 638.204 394.854 645.495 399.039L792.54 483.518C799.985 487.704 811.929 487.704 819.374 483.518L966.42 399.039C973.865 394.854 979.759 384.314 979.759 375.943V206.985C979.759 198.46 973.71 188.074 966.42 183.889L819.374 99.4101ZM949.823 187.764C957.268 191.95 957.268 198.925 949.823 203.11L821.08 277.049C813.635 281.234 801.692 281.234 794.246 277.049L663.643 202.025C656.197 197.84 656.197 190.864 663.643 186.679L792.385 112.741C799.83 108.556 811.774 108.556 819.219 112.741L949.823 187.764ZM643.633 219.231C643.633 210.705 649.683 207.295 656.973 211.48L788.662 287.124C796.108 291.309 802.002 301.85 802.002 310.22V460.267C802.002 468.793 795.952 472.203 788.662 468.018L656.973 392.374C649.528 388.189 643.633 377.648 643.633 369.278V219.231ZM827.13 465.693C819.684 469.878 813.79 466.468 813.79 457.942V310.22C813.79 301.695 819.84 291.309 827.13 287.124L954.941 213.806C962.387 209.62 968.281 213.031 968.281 221.556V369.278C968.281 377.803 962.232 388.189 954.941 392.374L827.13 465.693Z" fill="#910505"/>
<path d="M408.361 490L266.593 450.644L235 96.2964H582.148L550.522 450.588L408.361 490Z" fill="#264DE4"/>
<path d="M523.446 428.029L550.473 125.27H408.574V459.876L523.446 428.029Z" fill="#2965F1"/>
<path d="M307.425 256.692L311.32 300.151H408.574V256.692H307.425Z" fill="#EBEBEB"/>
<path d="M299.599 168.729L303.549 212.189H408.574V168.729H408.424H299.599Z" fill="#EBEBEB"/>
<path d="M408.574 369.56L408.383 369.611L359.983 356.542L356.888 321.881H333.369H313.262L319.351 390.118L408.374 414.832L408.574 414.776V369.56Z" fill="#EBEBEB"/>
<path d="M316.699 0H369.336V22.0117H338.711V44.0234H369.336V66.0352H316.699V0Z" fill="black"/>
<path d="M379.863 0H432.5V19.1406H401.875V22.9688H432.5V66.9922H379.863V46.8945H410.488V43.0664H379.863V0Z" fill="black"/>
<path d="M443.027 0H495.664V19.1406H465.039V22.9688H495.664V66.9922H443.027V46.8945H473.652V43.0664H443.027V0Z" fill="black"/>
<path d="M509.444 256.692L517.29 168.729H408.424V212.189H469.662L465.708 256.692H408.424V300.151H461.939L456.894 356.514L408.424 369.597V414.811L497.518 390.118L498.171 382.776L508.384 268.362L509.444 256.692Z" fill="white"/>
</svg>
