<?xml version="1.0" encoding="UTF-8" standalone="no"?><!DOCTYPE svg PUBLIC "-//W3C//DTD SVG 1.1//EN" "http://www.w3.org/Graphics/SVG/1.1/DTD/svg11.dtd"><svg width="100%" height="100%" viewBox="0 0 967 249" version="1.1" xmlns="http://www.w3.org/2000/svg" xmlns:xlink="http://www.w3.org/1999/xlink" xml:space="preserve" xmlns:serif="http://www.serif.com/" style="fill-rule:evenodd;clip-rule:evenodd;stroke-linejoin:round;stroke-miterlimit:2;"><g><g transform="matrix(42.5951,0,0,42.5951,508.852,93.8172)"><path d="M0.083,-0l0,-0.654l0.206,0c0.049,0 0.092,0.006 0.13,0.019c0.038,0.013 0.068,0.034 0.09,0.063c0.022,0.029 0.033,0.069 0.033,0.12c0,0.048 -0.011,0.088 -0.033,0.119c-0.022,0.031 -0.051,0.055 -0.089,0.07c-0.038,0.015 -0.08,0.023 -0.127,0.023l-0.094,-0l0,0.24l-0.116,0Zm0.116,-0.333l0.085,-0c0.049,-0 0.085,-0.01 0.108,-0.03c0.024,-0.02 0.036,-0.05 0.036,-0.089c-0,-0.041 -0.013,-0.07 -0.038,-0.085c-0.025,-0.016 -0.062,-0.024 -0.11,-0.024l-0.081,-0l0,0.228Z" style="fill:#1e1e1e;fill-opacity:0.85;fill-rule:nonzero;"/></g><g transform="matrix(42.5951,0,0,42.5951,530.814,93.8172)"><path d="M0.274,0.012c-0.04,0 -0.079,-0.01 -0.114,-0.03c-0.036,-0.021 -0.064,-0.05 -0.086,-0.088c-0.022,-0.039 -0.033,-0.085 -0.033,-0.139c-0,-0.055 0.011,-0.101 0.033,-0.14c0.022,-0.038 0.05,-0.068 0.086,-0.088c0.035,-0.02 0.074,-0.03 0.114,-0.03c0.041,-0 0.079,0.01 0.115,0.03c0.035,0.02 0.064,0.05 0.086,0.088c0.022,0.039 0.033,0.085 0.033,0.14c0,0.054 -0.011,0.1 -0.033,0.139c-0.022,0.038 -0.051,0.067 -0.086,0.088c-0.036,0.02 -0.074,0.03 -0.115,0.03Zm0,-0.094c0.024,-0 0.045,-0.007 0.062,-0.02c0.018,-0.014 0.031,-0.033 0.04,-0.057c0.009,-0.025 0.014,-0.053 0.014,-0.086c-0,-0.033 -0.005,-0.062 -0.014,-0.086c-0.009,-0.025 -0.022,-0.044 -0.04,-0.058c-0.017,-0.013 -0.038,-0.02 -0.062,-0.02c-0.024,-0 -0.044,0.007 -0.061,0.02c-0.018,0.014 -0.031,0.033 -0.04,0.058c-0.009,0.024 -0.014,0.053 -0.014,0.086c0,0.033 0.005,0.061 0.014,0.086c0.009,0.024 0.022,0.043 0.04,0.057c0.017,0.013 0.037,0.02 0.061,0.02Z" style="fill:#1e1e1e;fill-opacity:0.85;fill-rule:nonzero;"/></g><g transform="matrix(42.5951,0,0,42.5951,552.487,93.8172)"><path d="M0.154,-0l-0.13,-0.491l0.118,0l0.058,0.255c0.005,0.022 0.01,0.044 0.014,0.067c0.004,0.023 0.008,0.05 0.011,0.079l0.004,-0c0.005,-0.029 0.009,-0.056 0.013,-0.079c0.005,-0.023 0.009,-0.045 0.014,-0.067l0.06,-0.255l0.12,0l0.062,0.255c0.005,0.022 0.01,0.044 0.015,0.067c0.005,0.023 0.009,0.05 0.014,0.079l0.004,-0c0.005,-0.029 0.009,-0.056 0.012,-0.079c0.004,-0.023 0.008,-0.045 0.013,-0.067l0.058,-0.255l0.11,0l-0.125,0.491l-0.147,-0l-0.05,-0.228c-0.005,-0.022 -0.009,-0.044 -0.014,-0.066c-0.004,-0.023 -0.008,-0.05 -0.012,-0.082l-0.004,0c-0.004,0.032 -0.008,0.059 -0.012,0.082c-0.004,0.022 -0.009,0.044 -0.014,0.066l-0.05,0.228l-0.142,0Z" style="fill:#1e1e1e;fill-opacity:0.85;fill-rule:nonzero;"/></g><g transform="matrix(42.5951,0,0,42.5951,582.644,93.8172)"><path d="M0.284,0.012c-0.046,0 -0.088,-0.01 -0.125,-0.031c-0.037,-0.02 -0.066,-0.049 -0.087,-0.087c-0.021,-0.039 -0.032,-0.085 -0.032,-0.14c-0,-0.053 0.011,-0.099 0.033,-0.137c0.022,-0.039 0.05,-0.068 0.085,-0.089c0.035,-0.021 0.071,-0.031 0.11,-0.031c0.045,0 0.082,0.01 0.112,0.03c0.03,0.02 0.052,0.047 0.068,0.082c0.015,0.035 0.022,0.076 0.022,0.121c0,0.011 -0.001,0.021 -0.002,0.031c-0.001,0.01 -0.002,0.02 -0.004,0.029l-0.338,-0l0,-0.088l0.242,-0c0,-0.035 -0.008,-0.063 -0.024,-0.084c-0.016,-0.02 -0.041,-0.03 -0.074,-0.03c-0.019,-0 -0.037,0.005 -0.054,0.015c-0.018,0.01 -0.033,0.027 -0.044,0.051c-0.012,0.024 -0.018,0.057 -0.018,0.1c0,0.039 0.007,0.07 0.02,0.094c0.013,0.025 0.031,0.043 0.053,0.054c0.022,0.012 0.046,0.018 0.071,0.018c0.021,-0 0.042,-0.003 0.061,-0.009c0.019,-0.006 0.036,-0.014 0.053,-0.025l0.04,0.074c-0.023,0.016 -0.048,0.029 -0.077,0.038c-0.029,0.009 -0.06,0.014 -0.091,0.014Z" style="fill:#1e1e1e;fill-opacity:0.85;fill-rule:nonzero;"/></g><g transform="matrix(42.5951,0,0,42.5951,602.536,93.8172)"><path d="M0.073,-0l0,-0.491l0.095,-0l0.008,0.087l0.004,0c0.017,-0.032 0.038,-0.056 0.062,-0.074c0.025,-0.017 0.05,-0.025 0.077,-0.025c0.013,-0 0.023,0.001 0.032,0.002c0.009,0.002 0.017,0.004 0.024,0.008l-0.023,0.098c-0.008,-0.002 -0.015,-0.004 -0.022,-0.005c-0.006,-0.001 -0.015,-0.001 -0.026,-0.001c-0.019,-0 -0.04,0.007 -0.061,0.022c-0.022,0.015 -0.04,0.042 -0.055,0.079l0,0.3l-0.115,-0Z" style="fill:#1e1e1e;fill-opacity:0.85;fill-rule:nonzero;"/></g><g transform="matrix(42.5951,0,0,42.5951,616.302,93.8172)"><path d="M0.284,0.012c-0.046,0 -0.088,-0.01 -0.125,-0.031c-0.037,-0.02 -0.066,-0.049 -0.087,-0.087c-0.021,-0.039 -0.032,-0.085 -0.032,-0.14c-0,-0.053 0.011,-0.099 0.033,-0.137c0.022,-0.039 0.05,-0.068 0.085,-0.089c0.035,-0.021 0.071,-0.031 0.11,-0.031c0.045,0 0.082,0.01 0.112,0.03c0.03,0.02 0.052,0.047 0.068,0.082c0.015,0.035 0.022,0.076 0.022,0.121c0,0.011 -0.001,0.021 -0.002,0.031c-0.001,0.01 -0.002,0.02 -0.004,0.029l-0.338,-0l0,-0.088l0.242,-0c0,-0.035 -0.008,-0.063 -0.024,-0.084c-0.016,-0.02 -0.041,-0.03 -0.074,-0.03c-0.019,-0 -0.037,0.005 -0.054,0.015c-0.018,0.01 -0.033,0.027 -0.044,0.051c-0.012,0.024 -0.018,0.057 -0.018,0.1c0,0.039 0.007,0.07 0.02,0.094c0.013,0.025 0.031,0.043 0.053,0.054c0.022,0.012 0.046,0.018 0.071,0.018c0.021,-0 0.042,-0.003 0.061,-0.009c0.019,-0.006 0.036,-0.014 0.053,-0.025l0.04,0.074c-0.023,0.016 -0.048,0.029 -0.077,0.038c-0.029,0.009 -0.06,0.014 -0.091,0.014Z" style="fill:#1e1e1e;fill-opacity:0.85;fill-rule:nonzero;"/></g><g transform="matrix(42.5951,0,0,42.5951,636.194,93.8172)"><path d="M0.245,0.012c-0.061,0 -0.11,-0.023 -0.147,-0.068c-0.036,-0.046 -0.055,-0.109 -0.055,-0.189c0,-0.054 0.01,-0.099 0.03,-0.138c0.019,-0.038 0.045,-0.068 0.077,-0.089c0.032,-0.021 0.065,-0.031 0.101,-0.031c0.028,-0 0.052,0.005 0.072,0.014c0.019,0.01 0.038,0.023 0.057,0.04l-0.004,-0.079l-0,-0.178l0.115,-0l-0,0.706l-0.095,-0l-0.008,-0.053l-0.004,-0c-0.018,0.018 -0.039,0.033 -0.063,0.046c-0.024,0.013 -0.05,0.019 -0.076,0.019Zm0.028,-0.095c0.019,-0 0.037,-0.005 0.054,-0.013c0.016,-0.009 0.033,-0.023 0.049,-0.042l-0,-0.229c-0.017,-0.015 -0.034,-0.026 -0.05,-0.032c-0.017,-0.006 -0.033,-0.009 -0.05,-0.009c-0.021,-0 -0.04,0.006 -0.057,0.019c-0.018,0.012 -0.031,0.031 -0.042,0.055c-0.01,0.024 -0.015,0.053 -0.015,0.088c-0,0.053 0.009,0.093 0.029,0.121c0.02,0.028 0.047,0.042 0.082,0.042Z" style="fill:#1e1e1e;fill-opacity:0.85;fill-rule:nonzero;"/></g><g transform="matrix(42.5951,0,0,42.5951,658.514,93.8172)"></g><g transform="matrix(42.5951,0,0,42.5951,665.329,93.8172)"><path d="M0.311,0.012c-0.022,0 -0.045,-0.006 -0.068,-0.017c-0.023,-0.01 -0.045,-0.026 -0.066,-0.047l-0.003,0l-0.01,0.052l-0.091,-0l0,-0.706l0.115,-0l0,0.182l-0.003,0.082c0.021,-0.018 0.043,-0.033 0.068,-0.044c0.024,-0.012 0.049,-0.017 0.074,-0.017c0.041,-0 0.076,0.01 0.105,0.031c0.029,0.02 0.051,0.049 0.066,0.086c0.015,0.038 0.023,0.082 0.023,0.132c-0,0.056 -0.01,0.104 -0.03,0.144c-0.02,0.04 -0.046,0.07 -0.077,0.091c-0.032,0.021 -0.066,0.031 -0.103,0.031Zm-0.024,-0.095c0.022,-0 0.041,-0.007 0.059,-0.019c0.017,-0.013 0.031,-0.032 0.041,-0.057c0.01,-0.025 0.015,-0.056 0.015,-0.093c0,-0.033 -0.003,-0.061 -0.011,-0.084c-0.007,-0.023 -0.019,-0.041 -0.034,-0.053c-0.016,-0.013 -0.036,-0.019 -0.061,-0.019c-0.018,-0 -0.035,0.004 -0.053,0.013c-0.018,0.009 -0.036,0.023 -0.055,0.042l0,0.229c0.018,0.015 0.035,0.025 0.052,0.031c0.017,0.007 0.033,0.01 0.047,0.01Z" style="fill:#1e1e1e;fill-opacity:0.85;fill-rule:nonzero;"/></g><g transform="matrix(42.5951,0,0,42.5951,687.615,93.8172)"><path d="M0.106,0.202c-0.014,-0 -0.025,-0.001 -0.035,-0.003c-0.011,-0.002 -0.02,-0.005 -0.029,-0.009l0.022,-0.086c0.007,0.002 0.013,0.003 0.018,0.004c0.006,0.001 0.011,0.001 0.016,0.001c0.026,0 0.047,-0.008 0.063,-0.024c0.015,-0.016 0.027,-0.036 0.035,-0.06l0.009,-0.031l-0.193,-0.485l0.117,-0l0.085,0.241c0.007,0.021 0.015,0.044 0.022,0.067c0.007,0.024 0.014,0.048 0.021,0.071l0.004,0c0.006,-0.023 0.013,-0.046 0.019,-0.069c0.006,-0.024 0.012,-0.047 0.018,-0.069l0.074,-0.241l0.111,-0l-0.178,0.513c-0.013,0.037 -0.029,0.069 -0.046,0.096c-0.017,0.027 -0.038,0.047 -0.063,0.062c-0.024,0.014 -0.055,0.022 -0.09,0.022Z" style="fill:#1e1e1e;fill-opacity:0.85;fill-rule:nonzero;"/></g><g transform="matrix(42.5951,0,0,42.5951,708.691,93.8172)"></g><g><g><path d="M520.307,168.539l-10.688,-40.369l9.702,-0l4.768,20.965c0.439,1.809 0.823,3.659 1.151,5.55c0.329,1.891 0.631,4.042 0.905,6.454l0.329,-0c0.383,-2.412 0.753,-4.563 1.11,-6.454c0.356,-1.891 0.726,-3.741 1.11,-5.55l4.933,-20.965l9.866,-0l5.097,20.965c0.439,1.809 0.85,3.659 1.234,5.55c0.383,1.891 0.767,4.042 1.151,6.454l0.329,-0c0.383,-2.412 0.726,-4.563 1.027,-6.454c0.302,-1.891 0.644,-3.741 1.028,-5.55l4.769,-20.965l9.044,-0l-10.278,40.369l-12.086,-0l-4.111,-18.746c-0.383,-1.809 -0.753,-3.631 -1.11,-5.468c-0.356,-1.836 -0.698,-4.069 -1.027,-6.7l-0.329,-0c-0.329,2.631 -0.658,4.864 -0.987,6.7c-0.329,1.837 -0.712,3.659 -1.151,5.468l-4.111,18.746l-11.675,-0Z" style="fill:#222;fill-rule:nonzero;"/><path d="M588.417,169.525c-3.354,0 -6.493,-0.833 -9.414,-2.499c-2.922,-1.666 -5.285,-4.075 -7.088,-7.227c-1.803,-3.152 -2.705,-6.958 -2.705,-11.421c0,-4.483 0.902,-8.306 2.705,-11.469c1.803,-3.163 4.166,-5.577 7.088,-7.243c2.921,-1.667 6.06,-2.5 9.414,-2.5c3.354,0 6.486,0.833 9.397,2.5c2.91,1.666 5.273,4.08 7.087,7.243c1.815,3.163 2.722,6.986 2.722,11.469c-0,4.463 -0.907,8.269 -2.722,11.421c-1.814,3.152 -4.177,5.561 -7.087,7.227c-2.911,1.666 -6.043,2.499 -9.397,2.499Zm0,-7.728c1.973,-0 3.673,-0.554 5.098,-1.661c1.425,-1.107 2.51,-2.669 3.256,-4.686c0.745,-2.017 1.118,-4.375 1.118,-7.072c0,-2.696 -0.373,-5.059 -1.118,-7.087c-0.746,-2.028 -1.831,-3.601 -3.256,-4.719c-1.425,-1.118 -3.125,-1.677 -5.098,-1.677c-1.973,-0 -3.667,0.559 -5.081,1.677c-1.415,1.118 -2.5,2.691 -3.256,4.719c-0.756,2.028 -1.135,4.391 -1.135,7.087c0,2.697 0.379,5.055 1.135,7.072c0.756,2.017 1.841,3.579 3.256,4.686c1.414,1.107 3.108,1.661 5.081,1.661Z" style="fill:#222;fill-rule:nonzero;"/><path d="M613.707,168.539l0,-40.386l7.761,-0l0.723,7.203l0.263,-0c1.426,-2.642 3.144,-4.668 5.156,-6.077c2.011,-1.408 4.119,-2.113 6.323,-2.113c1.019,0 1.888,0.063 2.606,0.19c0.718,0.126 1.373,0.337 1.965,0.632l-1.908,8.058c-0.624,-0.165 -1.211,-0.288 -1.759,-0.37c-0.548,-0.082 -1.255,-0.124 -2.122,-0.124c-1.611,0 -3.296,0.617 -5.056,1.85c-1.759,1.234 -3.253,3.402 -4.481,6.505l-0,24.632l-9.471,-0Z" style="fill:#222;fill-rule:nonzero;"/><path d="M641.102,168.539l-0,-58.08l9.373,0l-0,36.177l0.262,0l14.767,-18.483l10.458,-0l-13.747,16.542l15.161,23.844l-10.293,-0l-10.393,-17.53l-6.215,7.17l-0,10.36l-9.373,-0Z" style="fill:#222;fill-rule:nonzero;"/><path d="M691.978,169.525c-2.828,0 -5.599,-0.518 -8.313,-1.554c-2.713,-1.035 -5.039,-2.491 -6.979,-4.366l4.143,-5.392c1.809,1.436 3.645,2.491 5.509,3.165c1.863,0.674 3.831,1.011 5.903,1.011c2.203,-0 3.834,-0.463 4.892,-1.389c1.058,-0.927 1.587,-2.075 1.587,-3.445c0,-1.13 -0.4,-2.073 -1.2,-2.829c-0.801,-0.756 -1.839,-1.411 -3.117,-1.965c-1.277,-0.554 -2.666,-1.105 -4.168,-1.653c-1.962,-0.712 -3.804,-1.581 -5.525,-2.606c-1.722,-1.025 -3.117,-2.289 -4.186,-3.791c-1.068,-1.501 -1.603,-3.327 -1.603,-5.475c0,-3.53 1.327,-6.424 3.98,-8.682c2.653,-2.259 6.227,-3.388 10.722,-3.388c2.729,0 5.24,0.452 7.53,1.357c2.291,0.904 4.254,2.063 5.887,3.477l-4.143,5.395c-1.448,-1.031 -2.911,-1.805 -4.391,-2.32c-1.48,-0.515 -3.031,-0.773 -4.653,-0.773c-2.039,0 -3.547,0.439 -4.523,1.316c-0.976,0.877 -1.464,1.93 -1.464,3.158c0,0.997 0.315,1.831 0.946,2.499c0.63,0.668 1.546,1.263 2.746,1.784c1.201,0.52 2.645,1.066 4.334,1.636c2.082,0.724 4.023,1.593 5.82,2.607c1.798,1.014 3.24,2.296 4.325,3.847c1.086,1.551 1.628,3.5 1.628,5.846c0,2.313 -0.6,4.415 -1.8,6.306c-1.2,1.891 -2.965,3.401 -5.295,4.53c-2.329,1.13 -5.193,1.694 -8.592,1.694Z" style="fill:#222;fill-rule:nonzero;"/><path d="M712.861,168.539l0,-58.08l9.471,0l-0,15.031l-0.394,7.794c1.71,-1.612 3.604,-3.035 5.681,-4.268c2.077,-1.233 4.492,-1.85 7.243,-1.85c4.353,0 7.513,1.401 9.481,4.202c1.967,2.801 2.951,6.75 2.951,11.847l0,25.324l-9.472,-0l0,-24.107c0,-3.332 -0.493,-5.689 -1.48,-7.071c-0.986,-1.381 -2.586,-2.072 -4.8,-2.072c-1.777,0 -3.333,0.428 -4.671,1.283c-1.337,0.855 -2.85,2.105 -4.539,3.749l-0,28.218l-9.471,-0Z" style="fill:#222;fill-rule:nonzero;"/><path d="M771.993,169.525c-3.355,0 -6.493,-0.833 -9.415,-2.499c-2.922,-1.666 -5.284,-4.075 -7.087,-7.227c-1.804,-3.152 -2.705,-6.958 -2.705,-11.421c-0,-4.483 0.901,-8.306 2.705,-11.469c1.803,-3.163 4.165,-5.577 7.087,-7.243c2.922,-1.667 6.06,-2.5 9.415,-2.5c3.354,0 6.486,0.833 9.396,2.5c2.911,1.666 5.273,4.08 7.088,7.243c1.814,3.163 2.721,6.986 2.721,11.469c0,4.463 -0.907,8.269 -2.721,11.421c-1.815,3.152 -4.177,5.561 -7.088,7.227c-2.91,1.666 -6.042,2.499 -9.396,2.499Zm-0,-7.728c1.973,-0 3.672,-0.554 5.097,-1.661c1.425,-1.107 2.511,-2.669 3.256,-4.686c0.746,-2.017 1.119,-4.375 1.119,-7.072c-0,-2.696 -0.373,-5.059 -1.119,-7.087c-0.745,-2.028 -1.831,-3.601 -3.256,-4.719c-1.425,-1.118 -3.124,-1.677 -5.097,-1.677c-1.973,-0 -3.667,0.559 -5.082,1.677c-1.414,1.118 -2.499,2.691 -3.256,4.719c-0.756,2.028 -1.134,4.391 -1.134,7.087c0,2.697 0.378,5.055 1.134,7.072c0.757,2.017 1.842,3.579 3.256,4.686c1.415,1.107 3.109,1.661 5.082,1.661Z" style="fill:#222;fill-rule:nonzero;"/><path d="M797.283,184.522l-0,-56.369l7.76,-0l0.724,4.309l0.263,-0c1.71,-1.491 3.615,-2.747 5.715,-3.766c2.099,-1.02 4.25,-1.53 6.453,-1.53c3.366,0 6.23,0.847 8.593,2.541c2.362,1.693 4.168,4.08 5.418,7.161c1.249,3.081 1.874,6.698 1.874,10.853c-0,4.604 -0.817,8.531 -2.45,11.782c-1.633,3.251 -3.757,5.734 -6.372,7.449c-2.614,1.715 -5.418,2.573 -8.41,2.573c-1.766,0 -3.528,-0.389 -5.287,-1.168c-1.76,-0.778 -3.462,-1.869 -5.106,-3.272l0.295,6.709l0,12.728l-9.47,0Zm17.561,-22.824c1.798,-0 3.415,-0.521 4.851,-1.562c1.436,-1.042 2.571,-2.593 3.404,-4.654c0.833,-2.061 1.25,-4.615 1.25,-7.662c0,-2.686 -0.307,-4.985 -0.921,-6.898c-0.614,-1.913 -1.565,-3.379 -2.853,-4.399c-1.288,-1.02 -2.957,-1.529 -5.008,-1.529c-1.435,-0 -2.866,0.367 -4.291,1.101c-1.426,0.735 -2.933,1.88 -4.523,3.437l0,18.812c1.459,1.217 2.887,2.08 4.285,2.589c1.397,0.51 2.666,0.765 3.806,0.765Z" style="fill:#222;fill-rule:nonzero;"/><path d="M851.645,169.525c-2.828,0 -5.599,-0.518 -8.313,-1.554c-2.713,-1.035 -5.039,-2.491 -6.979,-4.366l4.143,-5.392c1.809,1.436 3.645,2.491 5.508,3.165c1.864,0.674 3.832,1.011 5.903,1.011c2.204,-0 3.835,-0.463 4.893,-1.389c1.058,-0.927 1.587,-2.075 1.587,-3.445c0,-1.13 -0.4,-2.073 -1.2,-2.829c-0.801,-0.756 -1.839,-1.411 -3.117,-1.965c-1.277,-0.554 -2.667,-1.105 -4.168,-1.653c-1.962,-0.712 -3.804,-1.581 -5.525,-2.606c-1.722,-1.025 -3.117,-2.289 -4.186,-3.791c-1.068,-1.501 -1.603,-3.327 -1.603,-5.475c0,-3.53 1.327,-6.424 3.98,-8.682c2.653,-2.259 6.227,-3.388 10.722,-3.388c2.729,0 5.239,0.452 7.53,1.357c2.291,0.904 4.253,2.063 5.887,3.477l-4.143,5.395c-1.448,-1.031 -2.911,-1.805 -4.391,-2.32c-1.48,-0.515 -3.031,-0.773 -4.653,-0.773c-2.039,0 -3.547,0.439 -4.523,1.316c-0.976,0.877 -1.464,1.93 -1.464,3.158c0,0.997 0.315,1.831 0.946,2.499c0.63,0.668 1.546,1.263 2.746,1.784c1.201,0.52 2.645,1.066 4.333,1.636c2.083,0.724 4.024,1.593 5.821,2.607c1.798,1.014 3.239,2.296 4.325,3.847c1.086,1.551 1.628,3.5 1.628,5.846c0,2.313 -0.6,4.415 -1.8,6.306c-1.2,1.891 -2.965,3.401 -5.295,4.53c-2.329,1.13 -5.193,1.694 -8.592,1.694Z" style="fill:#222;fill-rule:nonzero;"/><path d="M877.822,169.525c-1.699,0 -3.143,-0.611 -4.332,-1.833c-1.189,-1.222 -1.784,-2.738 -1.784,-4.546c0,-1.886 0.595,-3.432 1.784,-4.638c1.189,-1.206 2.633,-1.809 4.332,-1.809c1.754,0 3.213,0.603 4.375,1.809c1.162,1.206 1.743,2.752 1.743,4.638c-0,1.808 -0.581,3.324 -1.743,4.546c-1.162,1.222 -2.621,1.833 -4.375,1.833Z" style="fill:#222;fill-rule:nonzero;"/><path d="M904.987,169.525c-5.031,0 -9.052,-1.866 -12.061,-5.599c-3.009,-3.733 -4.513,-8.915 -4.513,-15.548c-0,-4.384 0.808,-8.158 2.425,-11.321c1.617,-3.162 3.73,-5.601 6.339,-7.317c2.609,-1.716 5.388,-2.574 8.337,-2.574c2.313,0 4.273,0.392 5.879,1.176c1.605,0.784 3.176,1.872 4.71,3.264l-0.361,-6.512l0,-14.635l9.471,0l-0,58.08l-7.761,-0l-0.724,-4.375l-0.262,0c-1.48,1.48 -3.218,2.744 -5.213,3.791c-1.996,1.047 -4.084,1.57 -6.266,1.57Zm2.336,-7.827c1.578,-0 3.05,-0.365 4.415,-1.093c1.364,-0.729 2.699,-1.878 4.004,-3.446l0,-18.811c-1.371,-1.25 -2.736,-2.121 -4.095,-2.614c-1.359,-0.494 -2.735,-0.74 -4.128,-0.74c-1.709,-0 -3.271,0.518 -4.685,1.553c-1.415,1.036 -2.55,2.549 -3.405,4.539c-0.855,1.99 -1.282,4.388 -1.282,7.194c-0,4.374 0.805,7.704 2.417,9.99c1.611,2.285 3.864,3.428 6.759,3.428Z" style="fill:#222;fill-rule:nonzero;"/><path d="M951.293,169.525c-3.782,0 -7.194,-0.836 -10.236,-2.507c-3.043,-1.672 -5.441,-4.084 -7.195,-7.236c-1.754,-3.151 -2.631,-6.974 -2.631,-11.469c0,-4.385 0.905,-8.153 2.714,-11.305c1.808,-3.152 4.138,-5.577 6.988,-7.276c2.85,-1.699 5.865,-2.549 9.044,-2.549c3.673,-0 6.742,0.822 9.209,2.466c2.466,1.645 4.316,3.906 5.549,6.783c1.234,2.878 1.85,6.181 1.85,9.908c0,0.877 -0.041,1.726 -0.123,2.548c-0.082,0.823 -0.206,1.617 -0.37,2.385l-27.79,-0l0,-7.235l19.897,-0c-0,-2.905 -0.658,-5.194 -1.973,-6.866c-1.316,-1.671 -3.344,-2.507 -6.084,-2.507c-1.535,-0 -3.029,0.411 -4.481,1.233c-1.453,0.822 -2.659,2.22 -3.618,4.193c-0.959,1.973 -1.439,4.714 -1.439,8.222c0,3.179 0.548,5.769 1.645,7.77c1.096,2 2.548,3.48 4.357,4.439c1.809,0.96 3.755,1.439 5.838,1.439c1.754,0 3.412,-0.247 4.974,-0.74c1.562,-0.493 3.028,-1.178 4.399,-2.055l3.288,6.084c-1.863,1.315 -3.987,2.357 -6.372,3.124c-2.384,0.767 -4.864,1.151 -7.44,1.151Z" style="fill:#222;fill-rule:nonzero;"/></g></g><path d="M342.012,58.74c5.61,-5.375 13.226,-8.678 21.615,-8.678l85.672,0c17.246,0 31.227,13.962 31.227,31.184l-0,7.446c-1.505,3.313 -3.068,6.631 -4.675,9.91c-5.334,10.887 -10.924,20.886 -16.082,28.5c-2.584,3.813 -4.921,6.821 -6.928,8.984c-0.995,1.073 -1.819,1.839 -2.46,2.358c-0.588,0.476 -0.881,0.628 -0.881,0.629c-1.513,0.695 -2.255,0.728 -2.433,0.721c-0.101,-0.048 -0.342,-0.195 -0.74,-0.585c-1.952,-1.913 -4.16,-6.107 -6.619,-13.077c-0.956,-2.712 -1.83,-5.463 -2.738,-8.324c-0.186,-0.586 -0.374,-1.177 -0.563,-1.772c-1.069,-3.353 -2.243,-6.954 -3.543,-10.152c-1.219,-2.995 -2.996,-6.801 -5.709,-9.866c-3.016,-3.407 -8.478,-7.141 -15.808,-5.73c-5.721,1.101 -9.589,4.815 -11.851,7.519c-2.415,2.888 -4.409,6.335 -6.066,9.588c-2.467,4.846 -4.94,10.834 -7.254,16.437c-0.737,1.784 -1.458,3.529 -2.157,5.185c-3.147,7.458 -6.005,13.517 -8.872,17.501c-0.637,0.885 -1.163,1.519 -1.58,1.97c-0.04,-0.043 -0.082,-0.088 -0.125,-0.133c-1.638,-1.764 -3.693,-4.681 -6.023,-8.911c-4.628,-8.404 -9.382,-20.215 -13.682,-33.569c-5.028,-15.614 -9.15,-32.428 -11.725,-47.135Zm138.514,80.917l-0,27.347c-0,17.222 -13.981,31.184 -31.227,31.184l-85.672,-0c-17.246,-0 -31.227,-13.962 -31.227,-31.184l0,-48.457c4.132,12.146 8.815,23.551 13.779,32.564c2.821,5.123 5.978,9.926 9.49,13.707c3.282,3.534 8.249,7.671 14.856,8.549c11.983,1.592 19.996,-6.73 24.307,-12.721c4.653,-6.466 8.426,-14.883 11.526,-22.226c0.903,-2.14 1.752,-4.195 2.564,-6.159c1.461,-3.536 2.801,-6.779 4.121,-9.707c0.087,0.271 0.175,0.547 0.264,0.826c0.17,0.532 0.343,1.079 0.521,1.638c0.908,2.864 1.919,6.049 3.015,9.157c2.468,6.994 6.159,16.093 12.503,22.311c3.435,3.368 7.972,6.225 13.697,7.183c5.696,0.953 11.327,-0.182 16.616,-2.615c4.304,-1.98 7.998,-5.317 10.965,-8.515c3.122,-3.366 6.224,-7.446 9.222,-11.87c0.226,-0.335 0.453,-0.672 0.68,-1.012Zm-108.17,9.871c-0,-0.007 0.051,-0.041 0.153,-0.078c-0.103,0.067 -0.153,0.086 -0.153,0.078Zm74.719,-9.73c0.031,0.007 0.047,0.014 0.046,0.016c0,0.001 -0.015,-0.002 -0.046,-0.016Zm-0.026,-0.005c-0.035,-0.003 -0.034,-0.006 0,-0Zm-28.592,-26.847c0,0.003 -0.03,0.035 -0.092,0.086c0.061,-0.063 0.092,-0.089 0.092,-0.086Z" style="fill:#5fa1ee;"/></g><rect x="265.441" y="50.062" width="4.258" height="148.126" style="fill:#dbdcde;"/><g><path d="M132.036,229.804c-0.005,-0.621 0.12,-1.236 0.367,-1.806c0.231,-0.549 0.566,-1.048 0.987,-1.47c0.413,-0.412 0.903,-0.739 1.444,-0.96c0.545,-0.227 1.13,-0.343 1.721,-0.341c1.183,-0.013 2.321,0.457 3.15,1.301c0.919,0.865 1.44,2.072 1.44,3.334c0,2.511 -2.066,4.577 -4.577,4.577c-0.004,0 -0.008,0 -0.013,0c-1.17,0.008 -2.3,-0.438 -3.149,-1.244c-0.93,-0.875 -1.431,-2.116 -1.37,-3.391Zm30.167,-36.341l7.517,0l0,40.351l-5.359,0l-0.793,-2.934l-0.283,0c-0.779,1.028 -1.771,1.875 -2.908,2.483c-1.529,0.778 -3.232,1.148 -4.945,1.076c-1.633,0.013 -3.251,-0.314 -4.751,-0.961c-1.464,-0.638 -2.774,-1.583 -3.842,-2.771c-1.139,-1.285 -2.013,-2.781 -2.572,-4.404c-0.649,-1.911 -0.963,-3.92 -0.93,-5.937c-0.025,-1.973 0.261,-3.938 0.846,-5.822c0.506,-1.625 1.333,-3.133 2.43,-4.435c1.064,-1.231 2.399,-2.198 3.9,-2.825c1.686,-0.686 3.493,-1.022 5.313,-0.986c1.238,-0.007 2.47,0.184 3.648,0.567c1.003,0.298 1.936,0.799 2.74,1.469l-0.011,-14.871Zm0,20.472c-0.53,-0.633 -1.184,-1.153 -1.921,-1.527c-0.81,-0.42 -1.712,-0.633 -2.624,-0.62c-0.876,-0.006 -1.746,0.147 -2.567,0.452c-0.82,0.306 -1.557,0.798 -2.153,1.438c-0.676,0.761 -1.186,1.655 -1.496,2.625c-0.407,1.268 -0.599,2.595 -0.567,3.926c-0.018,1.319 0.159,2.633 0.525,3.9c0.283,0.979 0.744,1.897 1.36,2.709c0.527,0.684 1.216,1.225 2.005,1.575c0.773,0.346 1.61,0.525 2.457,0.525c1.093,0.032 2.169,-0.274 3.081,-0.877c0.793,-0.52 1.444,-1.229 1.895,-2.063l0.005,-12.063Zm38.431,8.362l-17.906,0l0,0.226c0,2.149 0.753,3.75 2.257,4.803c1.505,1.054 3.446,1.579 5.822,1.575c1.342,0.018 2.68,-0.133 3.984,-0.451c1.076,-0.277 2.129,-0.637 3.15,-1.076l1.354,5.249c-1.23,0.565 -2.519,0.993 -3.842,1.275c-1.802,0.38 -3.64,0.556 -5.481,0.525c-1.936,0.017 -3.865,-0.253 -5.721,-0.803c-1.719,-0.508 -3.315,-1.364 -4.688,-2.514c-1.373,-1.177 -2.465,-2.646 -3.197,-4.299c-0.835,-1.963 -1.24,-4.083 -1.186,-6.216c-0.026,-1.99 0.299,-3.97 0.96,-5.847c0.592,-1.672 1.525,-3.203 2.74,-4.494c1.204,-1.257 2.658,-2.247 4.268,-2.908c1.757,-0.717 3.641,-1.074 5.538,-1.05c3.654,0 6.565,1.113 8.735,3.339c2.17,2.226 3.253,5.333 3.249,9.323l-0.036,3.343Zm-7.685,-5.144c-0,-0.708 -0.086,-1.413 -0.258,-2.1c-0.151,-0.641 -0.43,-1.246 -0.819,-1.779c-0.374,-0.505 -0.856,-0.919 -1.412,-1.213c-0.651,-0.324 -1.372,-0.481 -2.099,-0.456c-1.402,-0.043 -2.759,0.513 -3.727,1.527c-1.032,1.139 -1.65,2.593 -1.754,4.126l10.069,-0.105Z" style="fill:#42b883;fill-rule:nonzero;"/><path d="M21.097,206.859l7.968,0l-9.553,26.955l-8.698,0l-9.271,-26.955l8.026,0l3.953,13.449l1.638,8.142l0.231,-0l1.638,-8.142l4.068,-13.449Zm29.275,0l7.517,0l0,26.955l-5.595,0l-0.793,-3.049l-0.226,-0c-0.456,0.444 -0.936,0.863 -1.438,1.254c-0.597,0.464 -1.243,0.862 -1.927,1.186c-0.791,0.396 -1.624,0.702 -2.483,0.914c-1.009,0.236 -2.044,0.351 -3.081,0.341c-2.904,0 -5.193,-0.81 -6.866,-2.43c-1.673,-1.621 -2.511,-4.02 -2.514,-7.197l-0,-17.974l7.517,0l-0,17.349c-0,1.622 0.383,2.788 1.154,3.507c0.817,0.722 1.883,1.099 2.972,1.05c1.213,0.034 2.413,-0.258 3.475,-0.846c0.892,-0.492 1.677,-1.158 2.309,-1.958l-0.021,-19.102Zm38.32,15.428l-17.921,-0l0,0.226c0,2.148 0.754,3.749 2.263,4.803c1.508,1.053 3.448,1.578 5.821,1.575c1.342,0.018 2.681,-0.134 3.984,-0.452c1.077,-0.276 2.13,-0.635 3.15,-1.076l1.359,5.249c-1.23,0.565 -2.518,0.993 -3.842,1.276c-1.803,0.379 -3.643,0.555 -5.486,0.525c-1.94,0.013 -3.872,-0.263 -5.732,-0.819c-1.719,-0.509 -3.317,-1.365 -4.693,-2.514c-1.372,-1.177 -2.463,-2.646 -3.191,-4.3c-0.838,-1.962 -1.243,-4.082 -1.187,-6.215c-0.026,-1.99 0.3,-3.97 0.961,-5.848c0.591,-1.671 1.524,-3.202 2.74,-4.493c1.204,-1.257 2.658,-2.247 4.268,-2.908c1.756,-0.719 3.64,-1.076 5.538,-1.05c3.653,0 6.563,1.113 8.729,3.339c2.167,2.225 3.253,5.342 3.26,9.349l-0.021,3.333Zm-7.685,-5.144c0.002,-0.708 -0.082,-1.413 -0.252,-2.1c-0.155,-0.641 -0.435,-1.246 -0.824,-1.78c-0.371,-0.507 -0.854,-0.922 -1.412,-1.212c-0.651,-0.326 -1.373,-0.483 -2.1,-0.457c-1.403,-0.042 -2.761,0.513 -3.732,1.528c-1.03,1.139 -1.646,2.593 -1.748,4.126l10.068,-0.105Zm13.339,-10.284l7.49,0l0,23.171c0.01,1.989 -0.152,3.975 -0.482,5.937c-0.295,1.764 -0.867,3.47 -1.696,5.055c-0.821,1.555 -1.914,2.951 -3.228,4.12c-1.532,1.312 -3.271,2.362 -5.145,3.108l-3.217,-5.144c0.989,-0.503 1.934,-1.09 2.824,-1.754c0.804,-0.615 1.468,-1.396 1.947,-2.288c0.562,-1.079 0.945,-2.242 1.134,-3.444c0.268,-1.712 0.391,-3.443 0.367,-5.176l0.006,-23.585Zm3.842,-5.774c-1.117,0.075 -2.216,-0.325 -3.023,-1.102c-0.701,-0.737 -1.079,-1.724 -1.05,-2.74c-0.034,-1.018 0.345,-2.006 1.05,-2.741c0.801,-0.768 1.888,-1.168 2.997,-1.102c1.09,-0.058 2.156,0.342 2.94,1.102c1.419,1.54 1.419,3.941 -0,5.481c-0.782,0.764 -1.848,1.168 -2.94,1.113l0.026,-0.011Zm27.412,12.205c-2.004,-1 -4.207,-1.538 -6.446,-1.575c-0.972,-0.057 -1.941,0.157 -2.798,0.619c-0.614,0.342 -0.993,0.994 -0.987,1.696c-0.015,0.692 0.313,1.35 0.877,1.753c0.582,0.452 1.758,0.945 3.533,1.47l1.695,0.525c2.334,0.675 4.105,1.655 5.312,2.939c1.231,1.356 1.88,3.142 1.806,4.971c0.081,2.504 -1.072,4.894 -3.081,6.389c-2.051,1.582 -4.83,2.373 -8.336,2.373c-3.58,-0 -6.651,-0.641 -9.213,-1.922l1.696,-5.538c1.105,0.566 2.259,1.03 3.449,1.386c1.193,0.352 2.43,0.528 3.674,0.525c1.509,0 2.611,-0.236 3.307,-0.709c0.655,-0.378 1.057,-1.081 1.05,-1.837c0.013,-0.749 -0.376,-1.451 -1.018,-1.837c-1.215,-0.639 -2.506,-1.123 -3.843,-1.438l-1.753,-0.525c-2.257,-0.749 -3.914,-1.748 -4.971,-2.998c-1.057,-1.249 -1.582,-2.906 -1.575,-4.971c-0.059,-2.317 0.967,-4.534 2.772,-5.989c1.848,-1.544 4.428,-2.317 7.742,-2.32c2.995,-0.057 5.965,0.542 8.704,1.753l-1.596,5.26Zm34.22,-177.479l43.569,-0l-78.356,136.083l-43.49,-0l78.277,-136.083Z" style="fill:#35495e;fill-rule:nonzero;"/><path d="M83.873,34.766l38.656,0l-19.286,33.422l-19.37,-33.422Zm-24.283,102.425c6.514,-11.323 12.656,-22.006 19.15,-33.302l-38.41,-0l19.26,33.302Zm21.081,-33.208l-19.196,33.36l38.451,-0c-6.488,-11.208 -12.625,-21.858 -19.255,-33.36Zm-20.236,34.809l19.15,33.102l19.049,-33.102l-38.199,-0Zm-0.278,-69.417c-6.63,11.501 -12.714,22.047 -19.107,33.144l38.319,-0l-19.212,-33.144Zm-60.089,-36.194l38.184,-0l-19.04,-33.066l-19.144,33.066Zm103.312,-33.066l-19.081,33.071l38.23,0l-19.149,-33.071Zm-82.299,67.827l38.262,-0l-19.154,-33.176l-19.108,33.176Zm38.278,-67.942l-38.199,-0l19.107,33.181c6.578,-11.438 12.672,-22.031 19.092,-33.181Zm3.864,0.11l19.118,33.071l19.06,-33.071l-38.178,0Zm-20.998,33.071l38.089,-0c-6.388,-11.102 -12.42,-21.57 -19.013,-33.008l-19.076,33.008Zm-23.128,34.692c6.478,-11.265 12.572,-21.852 19.039,-33.107l-38.136,0l19.097,33.107Zm38.955,1.89l-37.989,0l18.992,32.887l18.997,-32.887Z" style="fill:#42b883;fill-rule:nonzero;"/></g></svg>