<svg xmlns="http://www.w3.org/2000/svg" viewBox="0 0 387.47 472.88"><path d="M251.53 437.78a8.47 8.47 0 0 1 .7-3.44 8.78 8.78 0 0 1 1.88-2.8 8.38 8.38 0 0 1 2.75-1.83 8.49 8.49 0 0 1 3.28-.65 8.28 8.28 0 0 1 6 2.48 8.72 8.72 0 0 1-6 15.07 8.63 8.63 0 0 1-6-2.37 8.33 8.33 0 0 1-2.61-6.46ZM309 368.55h14.32v76.87h-10.21l-1.51-5.59h-.54a17 17 0 0 1-5.54 4.73 19 19 0 0 1-9.42 2.05 22.42 22.42 0 0 1-9.05-1.83 21.27 21.27 0 0 1-7.32-5.28 24.84 24.84 0 0 1-4.9-8.39 33.48 33.48 0 0 1-1.77-11.31 35.86 35.86 0 0 1 1.61-11.09 24.36 24.36 0 0 1 4.63-8.45 20 20 0 0 1 7.43-5.38 25.51 25.51 0 0 1 10.12-1.88 22.13 22.13 0 0 1 6.95 1.08 14.7 14.7 0 0 1 5.22 2.8Zm0 39a11.67 11.67 0 0 0-3.66-2.91 10.52 10.52 0 0 0-5-1.18 13.75 13.75 0 0 0-4.89.86 10.73 10.73 0 0 0-4.1 2.74 13.87 13.87 0 0 0-2.85 5 22.65 22.65 0 0 0-1.08 7.48 25.41 25.41 0 0 0 1 7.43 15.79 15.79 0 0 0 2.59 5.16 9.87 9.87 0 0 0 3.82 3 11.44 11.44 0 0 0 4.68 1 10.1 10.1 0 0 0 5.87-1.67 10.91 10.91 0 0 0 3.61-3.93Zm73.21 15.93H348.1v.43q0 6.14 4.3 9.15t11.09 3a30.26 30.26 0 0 0 7.59-.86 41 41 0 0 0 6-2.05l2.58 10a35 35 0 0 1-7.32 2.43 46.82 46.82 0 0 1-10.44 1 37.26 37.26 0 0 1-10.9-1.53 24.89 24.89 0 0 1-8.93-4.79 23.11 23.11 0 0 1-6.09-8.19 28.42 28.42 0 0 1-2.26-11.84 32.26 32.26 0 0 1 1.83-11.14 24.31 24.31 0 0 1 5.22-8.56 23.73 23.73 0 0 1 8.13-5.54 27 27 0 0 1 10.55-2q10.44 0 16.64 6.36t6.19 17.76Zm-14.64-9.8a16.5 16.5 0 0 0-.49-4 9.42 9.42 0 0 0-1.56-3.39 8 8 0 0 0-2.69-2.31 8.35 8.35 0 0 0-4-.87 9.42 9.42 0 0 0-7.1 2.91 13 13 0 0 0-3.34 7.86Z" fill="#42b883"/><path d="M40.19 394.07h15.18l-18.2 51.35H20.6L2.94 394.07h15.29l7.53 25.62 3.12 15.51h.44l3.12-15.51Zm55.77 0h14.32v51.35H99.62l-1.51-5.81h-.43a32.63 32.63 0 0 1-2.74 2.39 19.92 19.92 0 0 1-3.67 2.26 22.8 22.8 0 0 1-4.73 1.74 24.76 24.76 0 0 1-5.87.65q-8.3 0-13.08-4.63t-4.79-13.71v-34.24h14.32v33.05c0 3.09.73 5.31 2.2 6.68a8 8 0 0 0 5.66 2 12.91 12.91 0 0 0 6.62-1.61 14.63 14.63 0 0 0 4.4-3.73Zm73 29.39h-34.14v.43q0 6.14 4.31 9.15t11.09 3a30.26 30.26 0 0 0 7.59-.86 40.43 40.43 0 0 0 6-2.05l2.59 10a35.15 35.15 0 0 1-7.32 2.43 47 47 0 0 1-10.45 1 37.2 37.2 0 0 1-10.92-1.56 25 25 0 0 1-8.94-4.79 23 23 0 0 1-6.08-8.19 28.26 28.26 0 0 1-2.26-11.84 32.26 32.26 0 0 1 1.83-11.14 24.31 24.31 0 0 1 5.22-8.56 23.73 23.73 0 0 1 8.13-5.54 26.88 26.88 0 0 1 10.55-2q10.44 0 16.63 6.36t6.21 17.81Zm-14.64-9.8a16.49 16.49 0 0 0-.48-4 9.61 9.61 0 0 0-1.57-3.39 7.8 7.8 0 0 0-2.69-2.31 8.28 8.28 0 0 0-4-.87 9.45 9.45 0 0 0-7.11 2.91 13 13 0 0 0-3.33 7.86Zm25.41-19.59H194v44.14a66.25 66.25 0 0 1-.92 11.31 32.25 32.25 0 0 1-3.23 9.63 28 28 0 0 1-6.15 7.85 34.92 34.92 0 0 1-9.8 5.92l-6.13-9.8a37.08 37.08 0 0 0 5.38-3.34 13.57 13.57 0 0 0 3.71-4.36 21.4 21.4 0 0 0 2.16-6.56 58.43 58.43 0 0 0 .7-9.86Zm7.32-11a7.57 7.57 0 0 1-5.76-2.1 7.28 7.28 0 0 1-2-5.22 7.2 7.2 0 0 1 2-5.22 7.6 7.6 0 0 1 5.71-2.1 7.47 7.47 0 0 1 5.6 2.1 7.7 7.7 0 0 1 0 10.44 7.47 7.47 0 0 1-5.6 2.12Zm52.22 23.25a28.59 28.59 0 0 0-12.28-3 10 10 0 0 0-5.33 1.18 3.66 3.66 0 0 0-1.88 3.23 4 4 0 0 0 1.67 3.34c1.11.86 3.35 1.8 6.73 2.8l3.23 1q6.67 1.93 10.12 5.6a13.29 13.29 0 0 1 3.44 9.47 14.58 14.58 0 0 1-5.87 12.17q-5.86 4.52-15.88 4.52-10.23 0-17.55-3.66l3.23-10.55a38.86 38.86 0 0 0 6.57 2.64 24.55 24.55 0 0 0 7 1q4.31 0 6.3-1.35a4 4 0 0 0 2-3.5 4 4 0 0 0-1.94-3.5 31.07 31.07 0 0 0-7.32-2.74l-3.34-1q-6.45-2.14-9.47-5.71t-3-9.47a14.19 14.19 0 0 1 5.28-11.41q5.28-4.41 14.75-4.42a39.17 39.17 0 0 1 16.58 3.34ZM304.46 68.22h83L238.19 327.46h-82.85Z" fill="#35495e"/><path d="M159.78 66.23h73.64l-36.74 63.67Zm-46.26 195.12c12.41-21.57 24.11-41.92 36.48-63.44H76.83Zm40.16-63.26-36.57 63.55h73.25C178 240.29 166.31 220 153.68 198.09Zm-38.55 66.31 36.48 63.06 36.29-63.06Zm-.53-132.24c-12.63 21.91-24.22 42-36.4 63.14h73ZM.13 63.21h72.74L36.6.22ZM196.94.22l-36.35 63h72.83ZM40.16 129.43h72.89l-36.49-63.2ZM113.08 0H40.31l36.4 63.21C89.24 41.42 100.85 21.24 113.08 0Zm7.36.21 36.42 63 36.31-63Zm-40 63H153C140.83 42.06 129.34 22.12 116.78.33ZM36.38 129.3c12.34-21.46 23.95-41.63 36.27-63.07H0Zm74.21 3.6H38.22l36.18 62.65Z" fill="#42b883"/></svg>