<svg width="605" height="348" viewBox="0 0 605 348" fill="none" xmlns="http://www.w3.org/2000/svg">
<g clip-path="url(#clip0)">
<path d="M604.82 32.9301H317.245V317.161H604.82V32.9301Z" fill="#0072C4"/>
<path fill-rule="evenodd" clip-rule="evenodd" d="M487.983 209.212V288.008H475.708V209.212H447.106V198.174H517.873V209.212H487.983ZM530.788 283.9L535.269 272.617C537.56 274.293 540.414 275.693 543.831 276.818C547.247 277.942 550.306 278.504 553.006 278.504C557.794 278.504 561.64 277.196 564.545 274.579C567.45 271.963 568.903 268.631 568.903 264.584C568.903 261.559 568.095 258.749 566.478 256.153C564.862 253.557 560.801 250.726 554.295 247.66L547.053 244.287C540.915 241.426 536.629 238.033 534.195 234.108C531.76 230.184 530.543 225.462 530.543 219.943C530.543 213.239 532.916 207.679 537.662 203.264C542.409 198.849 548.505 196.641 555.952 196.641C565.895 196.641 572.81 198.256 576.698 201.486L573.076 212.155C571.44 210.97 568.944 209.825 565.588 208.722C562.233 207.618 559.123 207.066 556.259 207.066C552.086 207.066 548.802 208.251 546.408 210.622C544.015 212.994 542.818 216.039 542.818 219.759C542.818 222.048 543.247 224.133 544.107 226.014C544.966 227.894 546.163 229.468 547.697 230.735C549.232 232.003 552.372 233.781 557.119 236.07L564.484 239.566C570.621 242.468 574.928 245.933 577.403 249.959C579.879 253.986 581.117 259.106 581.117 265.32C581.117 272.065 578.406 277.788 572.984 282.49C567.563 287.191 560.31 289.541 551.226 289.541C543.247 289.541 536.435 287.661 530.788 283.9Z" fill="white"/>
</g>
<g clip-path="url(#clip1)">
<path d="M246.79 0.00185002L200.487 80.3673L154.185 0.00185002H-0.00756836L200.487 347.998L400.982 0.00185002H246.79Z" fill="#41B883"/>
<path d="M246.79 0.00188417L200.487 80.3673L154.185 0.00188417H80.1904L200.487 208.796L320.784 0.00188417H246.79Z" fill="#34495E"/>
</g>
<defs>
<clipPath id="clip0">
<rect width="288.239" height="285.089" fill="white" transform="translate(316.684 32.5767)"/>
</clipPath>
<clipPath id="clip1">
<rect width="401" height="348" fill="white"/>
</clipPath>
</defs>
</svg>
