<?xml version="1.0" encoding="UTF-8" standalone="no"?>
<!DOCTYPE svg PUBLIC "-//W3C//DTD SVG 1.1//EN" "http://www.w3.org/Graphics/SVG/1.1/DTD/svg11.dtd">
<svg width="100%" height="100%" viewBox="0 0 387 330" version="1.1" xmlns="http://www.w3.org/2000/svg" xmlns:xlink="http://www.w3.org/1999/xlink" xml:space="preserve" xmlns:serif="http://www.serif.com/" style="fill-rule:evenodd;clip-rule:evenodd;stroke-linejoin:round;stroke-miterlimit:2;">
    <path d="M40.19,394.07L55.37,394.07L37.17,445.42L20.6,445.42L2.94,394.07L18.23,394.07L25.76,419.69L28.88,435.2L29.32,435.2L32.44,419.69L40.19,394.07ZM95.96,394.07L110.28,394.07L110.28,445.42L99.62,445.42L98.11,439.61L97.68,439.61C96.812,440.457 95.897,441.255 94.94,442C93.802,442.884 92.571,443.642 91.27,444.26C89.762,445.013 88.176,445.597 86.54,446C84.616,446.45 82.646,446.668 80.67,446.65C75.137,446.65 70.777,445.107 67.59,442.02C64.403,438.933 62.807,434.363 62.8,428.31L62.8,394.07L77.12,394.07L77.12,427.12C77.12,430.21 77.85,432.43 79.32,433.8C80.875,435.176 82.906,435.893 84.98,435.8C87.291,435.866 89.577,435.31 91.6,434.19C93.3,433.251 94.795,431.983 96,430.46L95.96,394.07ZM168.96,423.46L134.82,423.46L134.82,423.89C134.82,427.983 136.257,431.033 139.13,433.04C142.003,435.047 145.7,436.047 150.22,436.04C152.776,436.075 155.326,435.786 157.81,435.18C159.861,434.655 161.867,433.969 163.81,433.13L166.4,443.13C164.057,444.206 161.602,445.021 159.08,445.56C155.645,446.283 152.14,446.618 148.63,446.56C144.933,446.586 141.252,446.06 137.71,445C134.434,444.031 131.391,442.401 128.77,440.21C126.156,437.97 124.078,435.171 122.69,432.02C121.094,428.282 120.323,424.243 120.43,420.18C120.38,416.388 121,412.617 122.26,409.04C123.386,405.855 125.164,402.94 127.48,400.48C129.773,398.086 132.543,396.198 135.61,394.94C138.956,393.571 142.545,392.89 146.16,392.94C153.12,392.94 158.663,395.06 162.79,399.3C166.917,403.54 168.987,409.477 169,417.11L168.96,423.46ZM154.32,413.66C154.324,412.312 154.163,410.969 153.84,409.66C153.543,408.438 153.01,407.286 152.27,406.27C151.563,405.304 150.642,404.513 149.58,403.96C148.341,403.34 146.965,403.041 145.58,403.09C142.906,403.009 140.32,404.068 138.47,406C136.507,408.17 135.334,410.94 135.14,413.86L154.32,413.66ZM179.73,394.07L194,394.07L194,438.21C194.017,441.999 193.71,445.783 193.08,449.52C192.519,452.88 191.429,456.131 189.85,459.15C188.286,462.114 186.203,464.772 183.7,467C180.781,469.499 177.47,471.499 173.9,472.92L167.77,463.12C169.655,462.162 171.455,461.045 173.15,459.78C174.683,458.607 175.947,457.121 176.86,455.42C177.93,453.365 178.66,451.149 179.02,448.86C179.531,445.599 179.766,442.301 179.72,439L179.73,394.07ZM187.05,383.07C184.921,383.214 182.827,382.45 181.29,380.97C179.956,379.566 179.235,377.686 179.29,375.75C179.226,373.812 179.948,371.929 181.29,370.53C182.817,369.066 184.888,368.304 187,368.43C189.077,368.32 191.108,369.081 192.6,370.53C195.305,373.463 195.305,378.037 192.6,380.97C191.111,382.426 189.08,383.195 187,383.09L187.05,383.07ZM239.27,406.32C235.452,404.416 231.256,403.391 226.99,403.32C225.138,403.211 223.293,403.62 221.66,404.5C220.491,405.151 219.768,406.392 219.78,407.73C219.751,409.05 220.377,410.301 221.45,411.07C222.56,411.93 224.8,412.87 228.18,413.87L231.41,414.87C235.857,416.157 239.23,418.023 241.53,420.47C243.874,423.052 245.111,426.455 244.97,429.94C245.124,434.709 242.928,439.262 239.1,442.11C235.193,445.123 229.9,446.63 223.22,446.63C216.4,446.63 210.55,445.41 205.67,442.97L208.9,432.42C211.005,433.498 213.204,434.382 215.47,435.06C217.743,435.729 220.101,436.066 222.47,436.06C225.343,436.06 227.443,435.61 228.77,434.71C230.017,433.99 230.783,432.65 230.77,431.21C230.795,429.782 230.054,428.445 228.83,427.71C226.515,426.492 224.056,425.572 221.51,424.97L218.17,423.97C213.87,422.543 210.713,420.64 208.7,418.26C206.687,415.88 205.687,412.723 205.7,408.79C205.587,404.375 207.542,400.152 210.98,397.38C214.5,394.44 219.417,392.967 225.73,392.96C231.434,392.853 237.093,393.993 242.31,396.3L239.27,406.32ZM304.46,68.22L387.46,68.22L238.19,327.46L155.34,327.46L304.46,68.22Z" style="fill:white;fill-rule:nonzero;"/>
    <path d="M159.78,66.23L233.42,66.23L196.68,129.9L159.78,66.23ZM113.52,261.35C125.93,239.78 137.63,219.43 150,197.91L76.83,197.91L113.52,261.35ZM153.68,198.09L117.11,261.64L190.36,261.64C178,240.29 166.31,220 153.68,198.09ZM115.13,264.4L151.61,327.46L187.9,264.4L115.13,264.4ZM114.6,132.16C101.97,154.07 90.38,174.16 78.2,195.3L151.2,195.3L114.6,132.16ZM0.13,63.21L72.87,63.21L36.6,0.22L0.13,63.21ZM196.94,0.22L160.59,63.22L233.42,63.22L196.94,0.22ZM40.16,129.43L113.05,129.43L76.56,66.23L40.16,129.43ZM113.08,0L40.31,0L76.71,63.21C89.24,41.42 100.85,21.24 113.08,0ZM120.44,0.21L156.86,63.21L193.17,0.21L120.44,0.21ZM80.44,63.21L153,63.21C140.83,42.06 129.34,22.12 116.78,0.33L80.44,63.21ZM36.38,129.3C48.72,107.84 60.33,87.67 72.65,66.23L0,66.23L36.38,129.3ZM110.59,132.9L38.22,132.9L74.4,195.55L110.59,132.9Z" style="fill:white;fill-rule:nonzero;"/>
</svg>
