<?xml version="1.0" encoding="UTF-8" standalone="no"?>
<!DOCTYPE svg PUBLIC "-//W3C//DTD SVG 1.1//EN" "http://www.w3.org/Graphics/SVG/1.1/DTD/svg11.dtd">
<svg width="100%" height="100%" viewBox="0 0 967 249" version="1.1" xmlns="http://www.w3.org/2000/svg" xmlns:xlink="http://www.w3.org/1999/xlink" xml:space="preserve" xmlns:serif="http://www.serif.com/" style="fill-rule:evenodd;clip-rule:evenodd;stroke-linejoin:round;stroke-miterlimit:2;">
    <g>
        <g transform="matrix(42.5951,0,0,42.5951,508.852,93.8172)">
            <path d="M0.083,-0L0.083,-0.654L0.289,-0.654C0.338,-0.654 0.381,-0.648 0.419,-0.635C0.457,-0.622 0.487,-0.601 0.509,-0.572C0.531,-0.543 0.542,-0.503 0.542,-0.452C0.542,-0.404 0.531,-0.364 0.509,-0.333C0.487,-0.302 0.458,-0.278 0.42,-0.263C0.382,-0.248 0.34,-0.24 0.293,-0.24L0.199,-0.24L0.199,-0L0.083,-0ZM0.199,-0.333L0.284,-0.333C0.333,-0.333 0.369,-0.343 0.392,-0.363C0.416,-0.383 0.428,-0.413 0.428,-0.452C0.428,-0.493 0.415,-0.522 0.39,-0.537C0.365,-0.553 0.328,-0.561 0.28,-0.561L0.199,-0.561L0.199,-0.333Z" style="fill:white;fill-opacity:0.85;fill-rule:nonzero;"/>
        </g>
        <g transform="matrix(42.5951,0,0,42.5951,530.814,93.8172)">
            <path d="M0.274,0.012C0.234,0.012 0.195,0.002 0.16,-0.018C0.124,-0.039 0.096,-0.068 0.074,-0.106C0.052,-0.145 0.041,-0.191 0.041,-0.245C0.041,-0.3 0.052,-0.346 0.074,-0.385C0.096,-0.423 0.124,-0.453 0.16,-0.473C0.195,-0.493 0.234,-0.503 0.274,-0.503C0.315,-0.503 0.353,-0.493 0.389,-0.473C0.424,-0.453 0.453,-0.423 0.475,-0.385C0.497,-0.346 0.508,-0.3 0.508,-0.245C0.508,-0.191 0.497,-0.145 0.475,-0.106C0.453,-0.068 0.424,-0.039 0.389,-0.018C0.353,0.002 0.315,0.012 0.274,0.012ZM0.274,-0.082C0.298,-0.082 0.319,-0.089 0.336,-0.102C0.354,-0.116 0.367,-0.135 0.376,-0.159C0.385,-0.184 0.39,-0.212 0.39,-0.245C0.39,-0.278 0.385,-0.307 0.376,-0.331C0.367,-0.356 0.354,-0.375 0.336,-0.389C0.319,-0.402 0.298,-0.409 0.274,-0.409C0.25,-0.409 0.23,-0.402 0.213,-0.389C0.195,-0.375 0.182,-0.356 0.173,-0.331C0.164,-0.307 0.159,-0.278 0.159,-0.245C0.159,-0.212 0.164,-0.184 0.173,-0.159C0.182,-0.135 0.195,-0.116 0.213,-0.102C0.23,-0.089 0.25,-0.082 0.274,-0.082Z" style="fill:white;fill-opacity:0.85;fill-rule:nonzero;"/>
        </g>
        <g transform="matrix(42.5951,0,0,42.5951,552.487,93.8172)">
            <path d="M0.154,-0L0.024,-0.491L0.142,-0.491L0.2,-0.236C0.205,-0.214 0.21,-0.192 0.214,-0.169C0.218,-0.146 0.222,-0.119 0.225,-0.09L0.229,-0.09C0.234,-0.119 0.238,-0.146 0.242,-0.169C0.247,-0.192 0.251,-0.214 0.256,-0.236L0.316,-0.491L0.436,-0.491L0.498,-0.236C0.503,-0.214 0.508,-0.192 0.513,-0.169C0.518,-0.146 0.522,-0.119 0.527,-0.09L0.531,-0.09C0.536,-0.119 0.54,-0.146 0.543,-0.169C0.547,-0.192 0.551,-0.214 0.556,-0.236L0.614,-0.491L0.724,-0.491L0.599,0L0.452,0L0.402,-0.228C0.397,-0.25 0.393,-0.272 0.388,-0.294C0.384,-0.317 0.38,-0.344 0.376,-0.376L0.372,-0.376C0.368,-0.344 0.364,-0.317 0.36,-0.294C0.356,-0.272 0.351,-0.25 0.346,-0.228L0.296,-0L0.154,-0Z" style="fill:white;fill-opacity:0.85;fill-rule:nonzero;"/>
        </g>
        <g transform="matrix(42.5951,0,0,42.5951,582.644,93.8172)">
            <path d="M0.284,0.012C0.238,0.012 0.196,0.002 0.159,-0.019C0.122,-0.039 0.093,-0.068 0.072,-0.106C0.051,-0.145 0.04,-0.191 0.04,-0.246C0.04,-0.299 0.051,-0.345 0.073,-0.383C0.095,-0.422 0.123,-0.451 0.158,-0.472C0.193,-0.493 0.229,-0.503 0.268,-0.503C0.313,-0.503 0.35,-0.493 0.38,-0.473C0.41,-0.453 0.432,-0.426 0.448,-0.391C0.463,-0.356 0.47,-0.315 0.47,-0.27C0.47,-0.259 0.469,-0.249 0.468,-0.239C0.467,-0.229 0.466,-0.219 0.464,-0.21L0.126,-0.21L0.126,-0.298L0.368,-0.298C0.368,-0.333 0.36,-0.361 0.344,-0.382C0.328,-0.402 0.303,-0.412 0.27,-0.412C0.251,-0.412 0.233,-0.407 0.216,-0.397C0.198,-0.387 0.183,-0.37 0.172,-0.346C0.16,-0.322 0.154,-0.289 0.154,-0.246C0.154,-0.207 0.161,-0.176 0.174,-0.152C0.187,-0.127 0.205,-0.109 0.227,-0.098C0.249,-0.086 0.273,-0.08 0.298,-0.08C0.319,-0.08 0.34,-0.083 0.359,-0.089C0.378,-0.095 0.395,-0.103 0.412,-0.114L0.452,-0.04C0.429,-0.024 0.404,-0.011 0.375,-0.002C0.346,0.007 0.315,0.012 0.284,0.012Z" style="fill:white;fill-opacity:0.85;fill-rule:nonzero;"/>
        </g>
        <g transform="matrix(42.5951,0,0,42.5951,602.536,93.8172)">
            <path d="M0.073,-0L0.073,-0.491L0.168,-0.491L0.176,-0.404L0.18,-0.404C0.197,-0.436 0.218,-0.46 0.242,-0.478C0.267,-0.495 0.292,-0.503 0.319,-0.503C0.332,-0.503 0.342,-0.502 0.351,-0.501C0.36,-0.499 0.368,-0.497 0.375,-0.493L0.352,-0.395C0.344,-0.397 0.337,-0.399 0.33,-0.4C0.324,-0.401 0.315,-0.401 0.304,-0.401C0.285,-0.401 0.264,-0.394 0.243,-0.379C0.221,-0.364 0.203,-0.337 0.188,-0.3L0.188,0L0.073,0Z" style="fill:white;fill-opacity:0.85;fill-rule:nonzero;"/>
        </g>
        <g transform="matrix(42.5951,0,0,42.5951,616.302,93.8172)">
            <path d="M0.284,0.012C0.238,0.012 0.196,0.002 0.159,-0.019C0.122,-0.039 0.093,-0.068 0.072,-0.106C0.051,-0.145 0.04,-0.191 0.04,-0.246C0.04,-0.299 0.051,-0.345 0.073,-0.383C0.095,-0.422 0.123,-0.451 0.158,-0.472C0.193,-0.493 0.229,-0.503 0.268,-0.503C0.313,-0.503 0.35,-0.493 0.38,-0.473C0.41,-0.453 0.432,-0.426 0.448,-0.391C0.463,-0.356 0.47,-0.315 0.47,-0.27C0.47,-0.259 0.469,-0.249 0.468,-0.239C0.467,-0.229 0.466,-0.219 0.464,-0.21L0.126,-0.21L0.126,-0.298L0.368,-0.298C0.368,-0.333 0.36,-0.361 0.344,-0.382C0.328,-0.402 0.303,-0.412 0.27,-0.412C0.251,-0.412 0.233,-0.407 0.216,-0.397C0.198,-0.387 0.183,-0.37 0.172,-0.346C0.16,-0.322 0.154,-0.289 0.154,-0.246C0.154,-0.207 0.161,-0.176 0.174,-0.152C0.187,-0.127 0.205,-0.109 0.227,-0.098C0.249,-0.086 0.273,-0.08 0.298,-0.08C0.319,-0.08 0.34,-0.083 0.359,-0.089C0.378,-0.095 0.395,-0.103 0.412,-0.114L0.452,-0.04C0.429,-0.024 0.404,-0.011 0.375,-0.002C0.346,0.007 0.315,0.012 0.284,0.012Z" style="fill:white;fill-opacity:0.85;fill-rule:nonzero;"/>
        </g>
        <g transform="matrix(42.5951,0,0,42.5951,636.194,93.8172)">
            <path d="M0.245,0.012C0.184,0.012 0.135,-0.011 0.098,-0.056C0.062,-0.102 0.043,-0.165 0.043,-0.245C0.043,-0.299 0.053,-0.344 0.073,-0.383C0.092,-0.421 0.118,-0.451 0.15,-0.472C0.182,-0.493 0.215,-0.503 0.251,-0.503C0.279,-0.503 0.303,-0.498 0.323,-0.489C0.342,-0.479 0.361,-0.466 0.38,-0.449L0.376,-0.528L0.376,-0.706L0.491,-0.706L0.491,0L0.396,0L0.388,-0.053L0.384,-0.053C0.366,-0.035 0.345,-0.02 0.321,-0.007C0.297,0.006 0.271,0.012 0.245,0.012ZM0.273,-0.083C0.292,-0.083 0.31,-0.088 0.327,-0.096C0.343,-0.105 0.36,-0.119 0.376,-0.138L0.376,-0.367C0.359,-0.382 0.342,-0.393 0.326,-0.399C0.309,-0.405 0.293,-0.408 0.276,-0.408C0.255,-0.408 0.236,-0.402 0.219,-0.389C0.201,-0.377 0.188,-0.358 0.177,-0.334C0.167,-0.31 0.162,-0.281 0.162,-0.246C0.162,-0.193 0.171,-0.153 0.191,-0.125C0.211,-0.097 0.238,-0.083 0.273,-0.083Z" style="fill:white;fill-opacity:0.85;fill-rule:nonzero;"/>
        </g>
        <g transform="matrix(42.5951,0,0,42.5951,665.329,93.8172)">
            <path d="M0.311,0.012C0.289,0.012 0.266,0.006 0.243,-0.005C0.22,-0.015 0.198,-0.031 0.177,-0.052L0.174,-0.052L0.164,-0L0.073,-0L0.073,-0.706L0.188,-0.706L0.188,-0.524L0.185,-0.442C0.206,-0.46 0.228,-0.475 0.253,-0.486C0.277,-0.498 0.302,-0.503 0.327,-0.503C0.368,-0.503 0.403,-0.493 0.432,-0.472C0.461,-0.452 0.483,-0.423 0.498,-0.386C0.513,-0.348 0.521,-0.304 0.521,-0.254C0.521,-0.198 0.511,-0.15 0.491,-0.11C0.471,-0.07 0.445,-0.04 0.414,-0.019C0.382,0.002 0.348,0.012 0.311,0.012ZM0.287,-0.083C0.309,-0.083 0.328,-0.09 0.346,-0.102C0.363,-0.115 0.377,-0.134 0.387,-0.159C0.397,-0.184 0.402,-0.215 0.402,-0.252C0.402,-0.285 0.399,-0.313 0.391,-0.336C0.384,-0.359 0.372,-0.377 0.357,-0.389C0.341,-0.402 0.321,-0.408 0.296,-0.408C0.278,-0.408 0.261,-0.404 0.243,-0.395C0.225,-0.386 0.207,-0.372 0.188,-0.353L0.188,-0.124C0.206,-0.109 0.223,-0.099 0.24,-0.093C0.257,-0.086 0.273,-0.083 0.287,-0.083Z" style="fill:white;fill-opacity:0.85;fill-rule:nonzero;"/>
        </g>
        <g transform="matrix(42.5951,0,0,42.5951,687.615,93.8172)">
            <path d="M0.106,0.202C0.092,0.202 0.081,0.201 0.071,0.199C0.06,0.197 0.051,0.194 0.042,0.19L0.064,0.104C0.071,0.106 0.077,0.107 0.082,0.108C0.088,0.109 0.093,0.109 0.098,0.109C0.124,0.109 0.145,0.101 0.161,0.085C0.176,0.069 0.188,0.049 0.196,0.025L0.205,-0.006L0.012,-0.491L0.129,-0.491L0.214,-0.25C0.221,-0.229 0.229,-0.206 0.236,-0.183C0.243,-0.159 0.25,-0.135 0.257,-0.112L0.261,-0.112C0.267,-0.135 0.274,-0.158 0.28,-0.181C0.286,-0.205 0.292,-0.228 0.298,-0.25L0.372,-0.491L0.483,-0.491L0.305,0.022C0.292,0.059 0.276,0.091 0.259,0.118C0.242,0.145 0.221,0.165 0.196,0.18C0.172,0.194 0.141,0.202 0.106,0.202Z" style="fill:white;fill-opacity:0.85;fill-rule:nonzero;"/>
        </g>
        <g>
            <g>
                <path d="M520.307,168.539L509.619,128.17L519.321,128.17L524.089,149.135C524.528,150.944 524.912,152.794 525.24,154.685C525.569,156.576 525.871,158.727 526.145,161.139L526.474,161.139C526.857,158.727 527.227,156.576 527.584,154.685C527.94,152.794 528.31,150.944 528.694,149.135L533.627,128.17L543.493,128.17L548.59,149.135C549.029,150.944 549.44,152.794 549.824,154.685C550.207,156.576 550.591,158.727 550.975,161.139L551.304,161.139C551.687,158.727 552.03,156.576 552.331,154.685C552.633,152.794 552.975,150.944 553.359,149.135L558.128,128.17L567.172,128.17L556.894,168.539L544.808,168.539L540.697,149.793C540.314,147.984 539.944,146.162 539.587,144.325C539.231,142.489 538.889,140.256 538.56,137.625L538.231,137.625C537.902,140.256 537.573,142.489 537.244,144.325C536.915,146.162 536.532,147.984 536.093,149.793L531.982,168.539L520.307,168.539Z" style="fill:white;fill-rule:nonzero;"/>
                <path d="M588.417,169.525C585.063,169.525 581.924,168.692 579.003,167.026C576.081,165.36 573.718,162.951 571.915,159.799C570.112,156.647 569.21,152.841 569.21,148.378C569.21,143.895 570.112,140.072 571.915,136.909C573.718,133.746 576.081,131.332 579.003,129.666C581.924,127.999 585.063,127.166 588.417,127.166C591.771,127.166 594.903,127.999 597.814,129.666C600.724,131.332 603.087,133.746 604.901,136.909C606.716,140.072 607.623,143.895 607.623,148.378C607.623,152.841 606.716,156.647 604.901,159.799C603.087,162.951 600.724,165.36 597.814,167.026C594.903,168.692 591.771,169.525 588.417,169.525ZM588.417,161.797C590.39,161.797 592.09,161.243 593.515,160.136C594.94,159.029 596.025,157.467 596.771,155.45C597.516,153.433 597.889,151.075 597.889,148.378C597.889,145.682 597.516,143.319 596.771,141.291C596.025,139.263 594.94,137.69 593.515,136.572C592.09,135.454 590.39,134.895 588.417,134.895C586.444,134.895 584.75,135.454 583.336,136.572C581.921,137.69 580.836,139.263 580.08,141.291C579.324,143.319 578.945,145.682 578.945,148.378C578.945,151.075 579.324,153.433 580.08,155.45C580.836,157.467 581.921,159.029 583.336,160.136C584.75,161.243 586.444,161.797 588.417,161.797Z" style="fill:white;fill-rule:nonzero;"/>
                <path d="M613.707,168.539L613.707,128.153L621.468,128.153L622.191,135.356L622.454,135.356C623.88,132.714 625.598,130.688 627.61,129.279C629.621,127.871 631.729,127.166 633.933,127.166C634.952,127.166 635.821,127.229 636.539,127.356C637.257,127.482 637.912,127.693 638.504,127.988L636.596,136.046C635.972,135.881 635.385,135.758 634.837,135.676C634.289,135.594 633.582,135.552 632.715,135.552C631.104,135.552 629.419,136.169 627.659,137.402C625.9,138.636 624.406,140.804 623.178,143.907L623.178,168.539L613.707,168.539Z" style="fill:white;fill-rule:nonzero;"/>
                <path d="M641.102,168.539L641.102,110.459L650.475,110.459L650.475,146.636L650.737,146.636L665.504,128.153L675.962,128.153L662.215,144.695L677.376,168.539L667.083,168.539L656.69,151.009L650.475,158.179L650.475,168.539L641.102,168.539Z" style="fill:white;fill-rule:nonzero;"/>
                <path d="M691.978,169.525C689.15,169.525 686.379,169.007 683.665,167.971C680.952,166.936 678.626,165.48 676.686,163.605L680.829,158.213C682.638,159.649 684.474,160.704 686.338,161.378C688.201,162.052 690.169,162.389 692.241,162.389C694.444,162.389 696.075,161.926 697.133,161C698.191,160.073 698.72,158.925 698.72,157.555C698.72,156.425 698.32,155.482 697.52,154.726C696.719,153.97 695.681,153.315 694.403,152.761C693.126,152.207 691.737,151.656 690.235,151.108C688.273,150.396 686.431,149.527 684.71,148.502C682.988,147.477 681.593,146.213 680.524,144.711C679.456,143.21 678.921,141.384 678.921,139.236C678.921,135.706 680.248,132.812 682.901,130.554C685.554,128.295 689.128,127.166 693.623,127.166C696.352,127.166 698.863,127.618 701.153,128.523C703.444,129.427 705.407,130.586 707.04,132L702.897,137.395C701.449,136.364 699.986,135.59 698.506,135.075C697.026,134.56 695.475,134.302 693.853,134.302C691.814,134.302 690.306,134.741 689.33,135.618C688.354,136.495 687.866,137.548 687.866,138.776C687.866,139.773 688.181,140.607 688.812,141.275C689.442,141.943 690.358,142.538 691.558,143.059C692.759,143.579 694.203,144.125 695.892,144.695C697.974,145.419 699.915,146.288 701.712,147.302C703.51,148.316 704.952,149.598 706.037,151.149C707.123,152.7 707.665,154.649 707.665,156.995C707.665,159.308 707.065,161.41 705.865,163.301C704.665,165.192 702.9,166.702 700.57,167.831C698.241,168.961 695.377,169.525 691.978,169.525Z" style="fill:white;fill-rule:nonzero;"/>
                <path d="M712.861,168.539L712.861,110.459L722.332,110.459L722.332,125.49L721.938,133.284C723.648,131.672 725.542,130.249 727.619,129.016C729.696,127.783 732.111,127.166 734.862,127.166C739.215,127.166 742.375,128.567 744.343,131.368C746.31,134.169 747.294,138.118 747.294,143.215L747.294,168.539L737.822,168.539L737.822,144.432C737.822,141.1 737.329,138.743 736.342,137.361C735.356,135.98 733.756,135.289 731.542,135.289C729.765,135.289 728.209,135.717 726.871,136.572C725.534,137.427 724.021,138.677 722.332,140.321L722.332,168.539L712.861,168.539Z" style="fill:white;fill-rule:nonzero;"/>
                <path d="M771.993,169.525C768.638,169.525 765.5,168.692 762.578,167.026C759.656,165.36 757.294,162.951 755.491,159.799C753.687,156.647 752.786,152.841 752.786,148.378C752.786,143.895 753.687,140.072 755.491,136.909C757.294,133.746 759.656,131.332 762.578,129.666C765.5,127.999 768.638,127.166 771.993,127.166C775.347,127.166 778.479,127.999 781.389,129.666C784.3,131.332 786.662,133.746 788.477,136.909C790.291,140.072 791.198,143.895 791.198,148.378C791.198,152.841 790.291,156.647 788.477,159.799C786.662,162.951 784.3,165.36 781.389,167.026C778.479,168.692 775.347,169.525 771.993,169.525ZM771.993,161.797C773.966,161.797 775.665,161.243 777.09,160.136C778.515,159.029 779.601,157.467 780.346,155.45C781.092,153.433 781.465,151.075 781.465,148.378C781.465,145.682 781.092,143.319 780.346,141.291C779.601,139.263 778.515,137.69 777.09,136.572C775.665,135.454 773.966,134.895 771.993,134.895C770.02,134.895 768.326,135.454 766.911,136.572C765.497,137.69 764.412,139.263 763.655,141.291C762.899,143.319 762.521,145.682 762.521,148.378C762.521,151.075 762.899,153.433 763.655,155.45C764.412,157.467 765.497,159.029 766.911,160.136C768.326,161.243 770.02,161.797 771.993,161.797Z" style="fill:white;fill-rule:nonzero;"/>
                <path d="M797.283,184.522L797.283,128.153L805.043,128.153L805.767,132.462L806.03,132.462C807.74,130.971 809.645,129.715 811.745,128.696C813.844,127.676 815.995,127.166 818.198,127.166C821.564,127.166 824.428,128.013 826.791,129.707C829.153,131.4 830.959,133.787 832.209,136.868C833.458,139.949 834.083,143.566 834.083,147.721C834.083,152.325 833.266,156.252 831.633,159.503C830,162.754 827.876,165.237 825.261,166.952C822.647,168.667 819.843,169.525 816.851,169.525C815.085,169.525 813.323,169.136 811.564,168.357C809.804,167.579 808.102,166.488 806.458,165.085L806.753,171.794L806.753,184.522L797.283,184.522ZM814.844,161.698C816.642,161.698 818.259,161.177 819.695,160.136C821.131,159.094 822.266,157.543 823.099,155.482C823.932,153.421 824.349,150.867 824.349,147.82C824.349,145.134 824.042,142.835 823.428,140.922C822.814,139.009 821.863,137.543 820.575,136.523C819.287,135.503 817.618,134.994 815.567,134.994C814.132,134.994 812.701,135.361 811.276,136.095C809.85,136.83 808.343,137.975 806.753,139.532L806.753,158.344C808.212,159.561 809.64,160.424 811.038,160.933C812.435,161.443 813.704,161.698 814.844,161.698Z" style="fill:white;fill-rule:nonzero;"/>
                <path d="M851.645,169.525C848.817,169.525 846.046,169.007 843.332,167.971C840.619,166.936 838.293,165.48 836.353,163.605L840.496,158.213C842.305,159.649 844.141,160.704 846.004,161.378C847.868,162.052 849.836,162.389 851.907,162.389C854.111,162.389 855.742,161.926 856.8,161C857.858,160.073 858.387,158.925 858.387,157.555C858.387,156.425 857.987,155.482 857.187,154.726C856.386,153.97 855.348,153.315 854.07,152.761C852.793,152.207 851.403,151.656 849.902,151.108C847.94,150.396 846.098,149.527 844.377,148.502C842.655,147.477 841.26,146.213 840.191,144.711C839.123,143.21 838.588,141.384 838.588,139.236C838.588,135.706 839.915,132.812 842.568,130.554C845.221,128.295 848.795,127.166 853.29,127.166C856.019,127.166 858.529,127.618 860.82,128.523C863.111,129.427 865.073,130.586 866.707,132L862.564,137.395C861.116,136.364 859.653,135.59 858.173,135.075C856.693,134.56 855.142,134.302 853.52,134.302C851.481,134.302 849.973,134.741 848.997,135.618C848.021,136.495 847.533,137.548 847.533,138.776C847.533,139.773 847.848,140.607 848.479,141.275C849.109,141.943 850.025,142.538 851.225,143.059C852.426,143.579 853.87,144.125 855.558,144.695C857.641,145.419 859.582,146.288 861.379,147.302C863.177,148.316 864.618,149.598 865.704,151.149C866.79,152.7 867.332,154.649 867.332,156.995C867.332,159.308 866.732,161.41 865.532,163.301C864.332,165.192 862.567,166.702 860.237,167.831C857.908,168.961 855.044,169.525 851.645,169.525Z" style="fill:white;fill-rule:nonzero;"/>
                <path d="M877.822,169.525C876.123,169.525 874.679,168.914 873.49,167.692C872.301,166.47 871.706,164.954 871.706,163.146C871.706,161.26 872.301,159.714 873.49,158.508C874.679,157.302 876.123,156.699 877.822,156.699C879.576,156.699 881.035,157.302 882.197,158.508C883.359,159.714 883.94,161.26 883.94,163.146C883.94,164.954 883.359,166.47 882.197,167.692C881.035,168.914 879.576,169.525 877.822,169.525Z" style="fill:white;fill-rule:nonzero;"/>
                <path d="M904.987,169.525C899.956,169.525 895.935,167.659 892.926,163.926C889.917,160.193 888.413,155.011 888.413,148.378C888.413,143.994 889.221,140.22 890.838,137.057C892.455,133.895 894.568,131.456 897.177,129.74C899.786,128.024 902.565,127.166 905.514,127.166C907.827,127.166 909.787,127.558 911.393,128.342C912.998,129.126 914.569,130.214 916.103,131.606L915.742,125.094L915.742,110.459L925.213,110.459L925.213,168.539L917.452,168.539L916.728,164.164L916.466,164.164C914.986,165.644 913.248,166.908 911.253,167.955C909.257,169.002 907.169,169.525 904.987,169.525ZM907.323,161.698C908.901,161.698 910.373,161.333 911.738,160.605C913.102,159.876 914.437,158.727 915.742,157.159L915.742,138.348C914.371,137.098 913.006,136.227 911.647,135.734C910.288,135.24 908.912,134.994 907.519,134.994C905.81,134.994 904.248,135.512 902.834,136.547C901.419,137.583 900.284,139.096 899.429,141.086C898.574,143.076 898.147,145.474 898.147,148.28C898.147,152.654 898.952,155.984 900.564,158.27C902.175,160.555 904.428,161.698 907.323,161.698Z" style="fill:white;fill-rule:nonzero;"/>
                <path d="M951.293,169.525C947.511,169.525 944.099,168.689 941.057,167.018C938.014,165.346 935.616,162.934 933.862,159.782C932.108,156.631 931.231,152.808 931.231,148.313C931.231,143.928 932.136,140.16 933.945,137.008C935.753,133.856 938.083,131.431 940.933,129.732C943.783,128.033 946.798,127.183 949.977,127.183C953.65,127.183 956.719,128.005 959.186,129.649C961.652,131.294 963.502,133.555 964.735,136.432C965.969,139.31 966.585,142.613 966.585,146.34C966.585,147.217 966.544,148.066 966.462,148.888C966.38,149.711 966.256,150.505 966.092,151.273L938.302,151.273L938.302,144.038L958.199,144.038C958.199,141.133 957.541,138.844 956.226,137.172C954.91,135.501 952.882,134.665 950.142,134.665C948.607,134.665 947.113,135.076 945.661,135.898C944.208,136.72 943.002,138.118 942.043,140.091C941.084,142.064 940.604,144.805 940.604,148.313C940.604,151.492 941.152,154.082 942.249,156.083C943.345,158.083 944.797,159.563 946.606,160.522C948.415,161.482 950.361,161.961 952.444,161.961C954.198,161.961 955.856,161.714 957.418,161.221C958.98,160.728 960.446,160.043 961.817,159.166L965.105,165.25C963.242,166.565 961.118,167.607 958.733,168.374C956.349,169.141 953.869,169.525 951.293,169.525Z" style="fill:white;fill-rule:nonzero;"/>
            </g>
        </g>
        <path d="M342.012,58.74C347.622,53.365 355.238,50.062 363.627,50.062L449.299,50.062C466.545,50.062 480.526,64.024 480.526,81.246L480.526,88.692C479.021,92.005 477.458,95.323 475.851,98.602C470.517,109.489 464.927,119.488 459.769,127.102C457.185,130.915 454.848,133.923 452.841,136.086C451.846,137.159 451.022,137.925 450.381,138.444C449.793,138.92 449.5,139.072 449.5,139.073C447.987,139.768 447.245,139.801 447.067,139.794C446.966,139.746 446.725,139.599 446.327,139.209C444.375,137.296 442.167,133.102 439.708,126.132C438.752,123.42 437.878,120.669 436.97,117.808C436.784,117.222 436.596,116.631 436.407,116.036C435.338,112.683 434.164,109.082 432.864,105.884C431.645,102.889 429.868,99.083 427.155,96.018C424.139,92.611 418.677,88.877 411.347,90.288C405.626,91.389 401.758,95.103 399.496,97.807C397.081,100.695 395.087,104.142 393.43,107.395C390.963,112.241 388.49,118.229 386.176,123.832C385.439,125.616 384.718,127.361 384.019,129.017C380.872,136.475 378.014,142.534 375.147,146.518C374.51,147.403 373.984,148.037 373.567,148.488C373.527,148.445 373.485,148.4 373.442,148.355C371.804,146.591 369.749,143.674 367.419,139.444C362.791,131.04 358.037,119.229 353.737,105.875C348.709,90.261 344.587,73.447 342.012,58.74ZM480.526,139.657L480.526,167.004C480.526,184.226 466.545,198.188 449.299,198.188L363.627,198.188C346.381,198.188 332.4,184.226 332.4,167.004L332.4,118.547C336.532,130.693 341.215,142.098 346.179,151.111C349,156.234 352.157,161.037 355.669,164.818C358.951,168.352 363.918,172.489 370.525,173.367C382.508,174.959 390.521,166.637 394.832,160.646C399.485,154.18 403.258,145.763 406.358,138.42C407.261,136.28 408.11,134.225 408.922,132.261C410.383,128.725 411.723,125.482 413.043,122.554C413.13,122.825 413.218,123.101 413.307,123.38C413.477,123.912 413.65,124.459 413.828,125.018C414.736,127.882 415.747,131.067 416.843,134.175C419.311,141.169 423.002,150.268 429.346,156.486C432.781,159.854 437.318,162.711 443.043,163.669C448.739,164.622 454.37,163.487 459.659,161.054C463.963,159.074 467.657,155.737 470.624,152.539C473.746,149.173 476.848,145.093 479.846,140.669C480.072,140.334 480.299,139.997 480.526,139.657ZM372.356,149.528C372.356,149.521 372.407,149.487 372.509,149.45C372.406,149.517 372.356,149.536 372.356,149.528ZM447.075,139.798C447.106,139.805 447.122,139.812 447.121,139.814C447.121,139.815 447.106,139.812 447.075,139.798ZM447.049,139.793C447.014,139.79 447.015,139.787 447.049,139.793ZM418.457,112.946C418.457,112.949 418.427,112.981 418.365,113.032C418.426,112.969 418.457,112.943 418.457,112.946Z" style="fill:rgb(95,161,238);"/>
    </g>
    <rect x="265.441" y="50.062" width="4.258" height="148.126" style="fill:rgb(219,220,222);"/>
    <g>
        <path d="M132.036,229.804C132.031,229.183 132.156,228.568 132.403,227.998C132.634,227.449 132.969,226.95 133.39,226.528C133.803,226.116 134.293,225.789 134.834,225.568C135.379,225.341 135.964,225.225 136.555,225.227C137.738,225.214 138.876,225.684 139.705,226.528C140.624,227.393 141.145,228.6 141.145,229.862C141.145,232.373 139.079,234.439 136.568,234.439L136.555,234.439C135.385,234.447 134.255,234.001 133.406,233.195C132.476,232.32 131.975,231.079 132.036,229.804ZM162.203,193.463L169.72,193.463L169.72,233.814L164.361,233.814L163.568,230.88L163.285,230.88C162.506,231.908 161.514,232.755 160.377,233.363C158.848,234.141 157.145,234.511 155.432,234.439C153.799,234.452 152.181,234.125 150.681,233.478C149.217,232.84 147.907,231.895 146.839,230.707C145.7,229.422 144.826,227.926 144.267,226.303C143.618,224.392 143.304,222.383 143.337,220.366C143.312,218.393 143.598,216.428 144.183,214.544C144.689,212.919 145.516,211.411 146.613,210.109C147.677,208.878 149.012,207.911 150.513,207.284C152.199,206.598 154.006,206.262 155.826,206.298C157.064,206.291 158.296,206.482 159.474,206.865C160.477,207.163 161.41,207.664 162.214,208.334L162.203,193.463ZM162.203,213.935C161.673,213.302 161.019,212.782 160.282,212.408C159.472,211.988 158.57,211.775 157.658,211.788C156.782,211.782 155.912,211.935 155.091,212.24C154.271,212.546 153.534,213.038 152.938,213.678C152.262,214.439 151.752,215.333 151.442,216.303C151.035,217.571 150.843,218.898 150.875,220.229C150.857,221.548 151.034,222.862 151.4,224.129C151.683,225.108 152.144,226.026 152.76,226.838C153.287,227.522 153.976,228.063 154.765,228.413C155.538,228.759 156.375,228.938 157.222,228.938C158.315,228.97 159.391,228.664 160.303,228.061C161.096,227.541 161.747,226.832 162.198,225.998L162.203,213.935ZM200.634,222.297L182.728,222.297L182.728,222.523C182.728,224.672 183.481,226.273 184.985,227.326C186.49,228.38 188.431,228.905 190.807,228.901C192.149,228.919 193.487,228.768 194.791,228.45C195.867,228.173 196.92,227.813 197.941,227.374L199.295,232.623C198.065,233.188 196.776,233.616 195.453,233.898C193.651,234.278 191.813,234.454 189.972,234.423C188.036,234.44 186.107,234.17 184.251,233.62C182.532,233.112 180.936,232.256 179.563,231.106C178.19,229.929 177.098,228.46 176.366,226.807C175.531,224.844 175.126,222.724 175.18,220.591C175.154,218.601 175.479,216.621 176.14,214.744C176.732,213.072 177.665,211.541 178.88,210.25C180.084,208.993 181.538,208.003 183.148,207.342C184.905,206.625 186.789,206.268 188.686,206.292C192.34,206.292 195.251,207.405 197.421,209.631C199.591,211.857 200.674,214.964 200.67,218.954L200.634,222.297ZM192.949,217.153C192.949,216.445 192.863,215.74 192.691,215.053C192.54,214.412 192.261,213.807 191.872,213.274C191.498,212.769 191.016,212.355 190.46,212.061C189.809,211.737 189.088,211.58 188.361,211.605C186.959,211.562 185.602,212.118 184.634,213.132C183.602,214.271 182.984,215.725 182.88,217.258L192.949,217.153Z" style="fill:rgb(66,184,131);fill-rule:nonzero;"/>
        <path d="M21.097,206.859L29.065,206.859L19.512,233.814L10.814,233.814L1.543,206.859L9.569,206.859L13.522,220.308L15.16,228.45L15.391,228.45L17.029,220.308L21.097,206.859ZM50.372,206.859L57.889,206.859L57.889,233.814L52.294,233.814L51.501,230.765L51.275,230.765C50.819,231.209 50.339,231.628 49.837,232.019C49.24,232.483 48.594,232.881 47.91,233.205C47.119,233.601 46.286,233.907 45.427,234.119C44.418,234.355 43.383,234.47 42.346,234.46C39.442,234.46 37.153,233.65 35.48,232.03C33.807,230.409 32.969,228.01 32.966,224.833L32.966,206.859L40.483,206.859L40.483,224.208C40.483,225.83 40.866,226.996 41.637,227.715C42.454,228.437 43.52,228.814 44.609,228.765C45.822,228.799 47.022,228.507 48.084,227.919C48.976,227.427 49.761,226.761 50.393,225.961L50.372,206.859ZM88.692,222.287L70.771,222.287L70.771,222.513C70.771,224.661 71.525,226.262 73.034,227.316C74.542,228.369 76.482,228.894 78.855,228.891C80.197,228.909 81.536,228.757 82.839,228.439C83.916,228.163 84.969,227.804 85.989,227.363L87.348,232.612C86.118,233.177 84.83,233.605 83.506,233.888C81.703,234.267 79.863,234.443 78.02,234.413C76.08,234.426 74.148,234.15 72.288,233.594C70.569,233.085 68.971,232.229 67.595,231.08C66.223,229.903 65.132,228.434 64.404,226.78C63.566,224.818 63.161,222.698 63.217,220.565C63.191,218.575 63.517,216.595 64.178,214.717C64.769,213.046 65.702,211.515 66.918,210.224C68.122,208.967 69.576,207.977 71.186,207.316C72.942,206.597 74.826,206.24 76.724,206.266C80.377,206.266 83.287,207.379 85.453,209.605C87.62,211.83 88.706,214.947 88.713,218.954L88.692,222.287ZM81.007,217.143C81.009,216.435 80.925,215.73 80.755,215.043C80.6,214.402 80.32,213.797 79.931,213.263C79.56,212.756 79.077,212.341 78.519,212.051C77.868,211.725 77.146,211.568 76.419,211.594C75.016,211.552 73.658,212.107 72.687,213.122C71.657,214.261 71.041,215.715 70.939,217.248L81.007,217.143ZM94.346,206.859L101.836,206.859L101.836,230.03C101.846,232.019 101.684,234.005 101.354,235.967C101.059,237.731 100.487,239.437 99.658,241.022C98.837,242.577 97.744,243.973 96.43,245.142C94.898,246.454 93.159,247.504 91.285,248.25L88.068,243.106C89.057,242.603 90.002,242.016 90.892,241.352C91.696,240.737 92.36,239.956 92.839,239.064C93.401,237.985 93.784,236.822 93.973,235.62C94.241,233.908 94.364,232.177 94.34,230.444L94.346,206.859ZM98.188,201.085C97.071,201.16 95.972,200.76 95.165,199.983C94.464,199.246 94.086,198.259 94.115,197.243C94.081,196.225 94.46,195.237 95.165,194.502C95.966,193.734 97.053,193.334 98.162,193.4C99.252,193.342 100.318,193.742 101.102,194.502C102.521,196.042 102.521,198.443 101.102,199.983C100.32,200.747 99.254,201.151 98.162,201.096L98.188,201.085ZM125.6,213.29C123.596,212.29 121.393,211.752 119.154,211.715C118.182,211.658 117.213,211.872 116.356,212.334C115.742,212.676 115.363,213.328 115.369,214.03C115.354,214.722 115.682,215.38 116.246,215.783C116.828,216.235 118.004,216.728 119.779,217.253L121.474,217.778C123.808,218.453 125.579,219.433 126.786,220.717C128.017,222.073 128.666,223.859 128.592,225.688C128.673,228.192 127.52,230.582 125.511,232.077C123.46,233.659 120.681,234.45 117.175,234.45C113.595,234.45 110.524,233.809 107.962,232.528L109.658,226.99C110.763,227.556 111.917,228.02 113.107,228.376C114.3,228.728 115.537,228.904 116.781,228.901C118.29,228.901 119.392,228.665 120.088,228.192C120.743,227.814 121.145,227.111 121.138,226.355C121.151,225.606 120.762,224.904 120.12,224.518C118.905,223.879 117.614,223.395 116.277,223.08L114.524,222.555C112.267,221.806 110.61,220.807 109.553,219.557C108.496,218.308 107.971,216.651 107.978,214.586C107.919,212.269 108.945,210.052 110.75,208.597C112.598,207.053 115.178,206.28 118.492,206.277C121.487,206.22 124.457,206.819 127.196,208.03L125.6,213.29ZM159.82,35.811L203.389,35.811L125.033,171.894L81.543,171.894L159.82,35.811Z" style="fill:white;fill-rule:nonzero;"/>
        <path d="M83.873,34.766L122.529,34.766L103.243,68.188L83.873,34.766ZM59.59,137.191C66.104,125.868 72.246,115.185 78.74,103.889L40.33,103.889L59.59,137.191ZM80.671,103.983L61.475,137.343L99.926,137.343C93.438,126.135 87.301,115.485 80.671,103.983ZM60.435,138.792L79.585,171.894L98.634,138.792L60.435,138.792ZM60.157,69.375C53.527,80.876 47.443,91.422 41.05,102.519L79.369,102.519L60.157,69.375ZM0.068,33.181L38.252,33.181L19.212,0.115L0.068,33.181ZM103.38,0.115L84.299,33.186L122.529,33.186L103.38,0.115ZM21.081,67.942L59.343,67.942L40.189,34.766L21.081,67.942ZM59.359,0L21.16,0L40.267,33.181C46.845,21.743 52.939,11.15 59.359,0ZM63.223,0.11L82.341,33.181L101.401,0.11L63.223,0.11ZM42.225,33.181L80.314,33.181C73.926,22.079 67.894,11.611 61.301,0.173L42.225,33.181ZM19.097,67.873C25.575,56.608 31.669,46.021 38.136,34.766L-0,34.766L19.097,67.873ZM58.052,69.763L20.063,69.763L39.055,102.65L58.052,69.763Z" style="fill:rgb(66,184,131);fill-rule:nonzero;"/>
    </g>
</svg>
