<svg width="463" height="463" viewBox="0 0 463 463" fill="none" xmlns="http://www.w3.org/2000/svg">
<path d="M231.5 453C353.831 453 453 353.831 453 231.5C453 109.169 353.831 10 231.5 10C109.169 10 10 109.169 10 231.5C10 353.831 109.169 453 231.5 453Z" stroke="white" stroke-width="20"/>
<path d="M230.987 418.988L32.6468 75.0019H180.295L226.655 155.406L230.987 162.918L235.319 155.406L281.679 75.0019H429.327L230.987 418.988Z" stroke="white" stroke-width="10"/>
<path d="M278.79 70.0019L230.987 152.908L183.184 70.0019H106.79L230.987 285.395L355.184 70.0019H278.79Z" fill="white"/>
<path d="M200.98 346V306.76H211.48C217.48 306.76 222.16 308.38 225.52 311.62C228.88 314.86 230.56 319.72 230.56 326.2C230.56 329.44 230.12 332.3 229.24 334.78C228.4 337.26 227.16 339.34 225.52 341.02C223.92 342.66 221.96 343.9 219.64 344.74C217.36 345.58 214.76 346 211.84 346H200.98ZM207.94 340.36H211C215 340.36 218.06 339.22 220.18 336.94C222.34 334.62 223.42 331.04 223.42 326.2C223.42 321.4 222.34 317.9 220.18 315.7C218.02 313.5 214.96 312.4 211 312.4H207.94V340.36Z" fill="white"/>
<path d="M238.48 346V306.76H262.12V312.64H245.44V322.66H259.54V328.54H245.44V340.12H262.72V346H238.48Z" fill="white"/>
</svg>
