<?xml version="1.0" encoding="UTF-8" standalone="no"?>
<!DOCTYPE svg PUBLIC "-//W3C//DTD SVG 1.1//EN" "http://www.w3.org/Graphics/SVG/1.1/DTD/svg11.dtd">
<svg width="100%" height="100%" viewBox="0 0 605 348" version="1.1" xmlns="http://www.w3.org/2000/svg" xmlns:xlink="http://www.w3.org/1999/xlink" xml:space="preserve" xmlns:serif="http://www.serif.com/" style="fill-rule:evenodd;clip-rule:evenodd;stroke-linejoin:round;stroke-miterlimit:2;">
    <g>
        <rect x="317.245" y="32.93" width="287.575" height="284.231" style="fill:rgb(0,114,196);fill-rule:nonzero;"/>
        <path d="M487.983,209.212L487.983,288.008L475.708,288.008L475.708,209.212L447.106,209.212L447.106,198.174L517.873,198.174L517.873,209.212L487.983,209.212ZM530.788,283.9L535.269,272.617C537.56,274.293 540.414,275.693 543.831,276.818C547.247,277.942 550.306,278.504 553.006,278.504C557.794,278.504 561.64,277.196 564.545,274.579C567.45,271.963 568.903,268.631 568.903,264.584C568.903,261.559 568.095,258.749 566.478,256.153C564.862,253.557 560.801,250.726 554.295,247.66L547.053,244.287C540.915,241.426 536.629,238.033 534.195,234.108C531.76,230.184 530.543,225.462 530.543,219.943C530.543,213.239 532.916,207.679 537.662,203.264C542.409,198.849 548.505,196.641 555.952,196.641C565.895,196.641 572.81,198.256 576.698,201.486L573.076,212.155C571.44,210.97 568.944,209.825 565.588,208.722C562.233,207.618 559.123,207.066 556.259,207.066C552.086,207.066 548.802,208.251 546.408,210.622C544.015,212.994 542.818,216.039 542.818,219.759C542.818,222.048 543.247,224.133 544.107,226.014C544.966,227.894 546.163,229.468 547.697,230.735C549.232,232.003 552.372,233.781 557.119,236.07L564.484,239.566C570.621,242.468 574.928,245.933 577.403,249.959C579.879,253.986 581.117,259.106 581.117,265.32C581.117,272.065 578.406,277.788 572.984,282.49C567.563,287.191 560.31,289.541 551.226,289.541C543.247,289.541 536.435,287.661 530.788,283.9Z" style="fill:white;"/>
    </g>
    <g>
        <path d="M246.79,0.002L200.487,80.367L154.185,0.002L-0.008,0.002L200.487,347.998L400.982,0.002L246.79,0.002Z" style="fill:rgb(65,184,131);fill-rule:nonzero;"/>
        <path d="M246.79,0.002L200.487,80.367L154.185,0.002L80.19,0.002L200.487,208.796L320.784,0.002L246.79,0.002Z" style="fill:rgb(52,73,94);fill-rule:nonzero;"/>
    </g>
</svg>
